%TF.GenerationSoftware,KiCad,Pcbnew,10.0.4*%
%TF.CreationDate,2026-08-18T13:41:54-07:00*%
%TF.ProjectId,FPGA_Board,46504741-5f42-46f6-9172-642e6b696361,rev?*%
%TF.SameCoordinates,Original*%
%TF.FileFunction,Drillmap*%
%TF.FilePolarity,Positive*%
%FSLAX45Y45*%
G04 Gerber Fmt 4.5, Leading zero omitted, Abs format (unit mm)*
G04 Created by KiCad (PCBNEW 10.0.4) date 2026-08-18 13:41:54*
%MOMM*%
%LPD*%
G01*
G04 APERTURE LIST*
%ADD10C,0.050000*%
%ADD11C,0.200000*%
%ADD12C,0.100000*%
%ADD13C,0.320000*%
G04 APERTURE END LIST*
D10*
X4000000Y-10500000D02*
X4000000Y-4500000D01*
X4000000Y-4500000D02*
G75*
G02*
X4500000Y-4000000I500000J0D01*
G01*
X4500000Y-11000000D02*
G75*
G02*
X4000000Y-10500000I0J500000D01*
G01*
X4500000Y-4000000D02*
X8500000Y-4000000D01*
X8500000Y-4000000D02*
G75*
G02*
X9000000Y-4500000I0J-500000D01*
G01*
X8500000Y-11000000D02*
X4500000Y-11000000D01*
X9000000Y-4500000D02*
X9000000Y-10500000D01*
X9000000Y-10500000D02*
G75*
G02*
X8500000Y-11000000I-500000J0D01*
G01*
D11*
D12*
X4937000Y-7485000D02*
X4967000Y-7515000D01*
X4967000Y-7485000D02*
X4937000Y-7515000D01*
X5068250Y-6306750D02*
X5098250Y-6336750D01*
X5098250Y-6306750D02*
X5068250Y-6336750D01*
X5248938Y-6023938D02*
X5278938Y-6053938D01*
X5278938Y-6023938D02*
X5248938Y-6053938D01*
X5345000Y-9137000D02*
X5375000Y-9167000D01*
X5375000Y-9137000D02*
X5345000Y-9167000D01*
X5348500Y-8437500D02*
X5378500Y-8467500D01*
X5378500Y-8437500D02*
X5348500Y-8467500D01*
X5370000Y-6285000D02*
X5400000Y-6315000D01*
X5400000Y-6285000D02*
X5370000Y-6315000D01*
X5391399Y-5898748D02*
X5421399Y-5928748D01*
X5421399Y-5898748D02*
X5391399Y-5928748D01*
X5435000Y-4187000D02*
X5465000Y-4217000D01*
X5465000Y-4187000D02*
X5435000Y-4217000D01*
X5435000Y-4283000D02*
X5465000Y-4313000D01*
X5465000Y-4283000D02*
X5435000Y-4313000D01*
X5486424Y-5993773D02*
X5516424Y-6023773D01*
X5516424Y-5993773D02*
X5486424Y-6023773D01*
X5549000Y-7700000D02*
X5579000Y-7730000D01*
X5579000Y-7700000D02*
X5549000Y-7730000D01*
X5630000Y-5745000D02*
X5660000Y-5775000D01*
X5660000Y-5745000D02*
X5630000Y-5775000D01*
X5655000Y-7215000D02*
X5685000Y-7245000D01*
X5685000Y-7215000D02*
X5655000Y-7245000D01*
X5660000Y-4290000D02*
X5690000Y-4320000D01*
X5690000Y-4290000D02*
X5660000Y-4320000D01*
X5666029Y-6173378D02*
X5696029Y-6203378D01*
X5696029Y-6173378D02*
X5666029Y-6203378D01*
X5687000Y-6435000D02*
X5717000Y-6465000D01*
X5717000Y-6435000D02*
X5687000Y-6465000D01*
X5687000Y-6660000D02*
X5717000Y-6690000D01*
X5717000Y-6660000D02*
X5687000Y-6690000D01*
X5728000Y-6933289D02*
X5758000Y-6963289D01*
X5758000Y-6933289D02*
X5728000Y-6963289D01*
X5783000Y-6435000D02*
X5813000Y-6465000D01*
X5813000Y-6435000D02*
X5783000Y-6465000D01*
X5783000Y-6660000D02*
X5813000Y-6690000D01*
X5813000Y-6660000D02*
X5783000Y-6690000D01*
X5810000Y-4180000D02*
X5840000Y-4210000D01*
X5840000Y-4180000D02*
X5810000Y-4210000D01*
X5810000Y-4290000D02*
X5840000Y-4320000D01*
X5840000Y-4290000D02*
X5810000Y-4320000D01*
X5885000Y-7536000D02*
X5915000Y-7566000D01*
X5915000Y-7536000D02*
X5885000Y-7566000D01*
X5885000Y-8837000D02*
X5915000Y-8867000D01*
X5915000Y-8837000D02*
X5885000Y-8867000D01*
X5885000Y-8933000D02*
X5915000Y-8963000D01*
X5915000Y-8933000D02*
X5885000Y-8963000D01*
X5903971Y-5396622D02*
X5933971Y-5426622D01*
X5933971Y-5396622D02*
X5903971Y-5426622D01*
X5906250Y-9285000D02*
X5936250Y-9315000D01*
X5936250Y-9285000D02*
X5906250Y-9315000D01*
X5911059Y-7013941D02*
X5941059Y-7043941D01*
X5941059Y-7013941D02*
X5911059Y-7043941D01*
X5928069Y-6298069D02*
X5958069Y-6328069D01*
X5958069Y-6298069D02*
X5928069Y-6328069D01*
X6031073Y-5114663D02*
X6061073Y-5144663D01*
X6061073Y-5114663D02*
X6031073Y-5144663D01*
X6051773Y-7014648D02*
X6081773Y-7044648D01*
X6081773Y-7014648D02*
X6051773Y-7044648D01*
X6076059Y-7228941D02*
X6106059Y-7258941D01*
X6106059Y-7228941D02*
X6076059Y-7258941D01*
X6082401Y-5577401D02*
X6112401Y-5607401D01*
X6112401Y-5577401D02*
X6082401Y-5607401D01*
X6143941Y-7161059D02*
X6173941Y-7191059D01*
X6173941Y-7161059D02*
X6143941Y-7191059D01*
X6160000Y-10186500D02*
X6190000Y-10216500D01*
X6190000Y-10186500D02*
X6160000Y-10216500D01*
X6173378Y-5666029D02*
X6203378Y-5696029D01*
X6203378Y-5666029D02*
X6173378Y-5696029D01*
X6205000Y-9475000D02*
X6235000Y-9505000D01*
X6235000Y-9475000D02*
X6205000Y-9505000D01*
X6227500Y-4100000D02*
X6257500Y-4130000D01*
X6257500Y-4100000D02*
X6227500Y-4130000D01*
X6240000Y-10186500D02*
X6270000Y-10216500D01*
X6270000Y-10186500D02*
X6240000Y-10216500D01*
X6285000Y-9333000D02*
X6315000Y-9363000D01*
X6315000Y-9333000D02*
X6285000Y-9363000D01*
X6300000Y-8300000D02*
X6330000Y-8330000D01*
X6330000Y-8300000D02*
X6300000Y-8330000D01*
X6385000Y-8732500D02*
X6415000Y-8762500D01*
X6415000Y-8732500D02*
X6385000Y-8762500D01*
X6482500Y-8735000D02*
X6512500Y-8765000D01*
X6512500Y-8735000D02*
X6482500Y-8765000D01*
X6485000Y-9671250D02*
X6515000Y-9701250D01*
X6515000Y-9671250D02*
X6485000Y-9701250D01*
X6485000Y-9898750D02*
X6515000Y-9928750D01*
X6515000Y-9898750D02*
X6485000Y-9928750D01*
X6491985Y-6650563D02*
X6521985Y-6680563D01*
X6521985Y-6650563D02*
X6491985Y-6680563D01*
X6513562Y-5908938D02*
X6543562Y-5938938D01*
X6543562Y-5908938D02*
X6513562Y-5938938D01*
X6600000Y-5975000D02*
X6630000Y-6005000D01*
X6630000Y-5975000D02*
X6600000Y-6005000D01*
X6625000Y-8402500D02*
X6655000Y-8432500D01*
X6655000Y-8402500D02*
X6625000Y-8432500D01*
X6663000Y-9185000D02*
X6693000Y-9215000D01*
X6693000Y-9185000D02*
X6663000Y-9215000D01*
X6730000Y-10186500D02*
X6760000Y-10216500D01*
X6760000Y-10186500D02*
X6730000Y-10216500D01*
X6737500Y-8560000D02*
X6767500Y-8590000D01*
X6767500Y-8560000D02*
X6737500Y-8590000D01*
X6742500Y-4100000D02*
X6772500Y-4130000D01*
X6772500Y-4100000D02*
X6742500Y-4130000D01*
X6805000Y-5412500D02*
X6835000Y-5442500D01*
X6835000Y-5412500D02*
X6805000Y-5442500D01*
X6809476Y-6182500D02*
X6839476Y-6212500D01*
X6839476Y-6182500D02*
X6809476Y-6212500D01*
X6810000Y-10186500D02*
X6840000Y-10216500D01*
X6840000Y-10186500D02*
X6810000Y-10216500D01*
X6853000Y-9183000D02*
X6883000Y-9213000D01*
X6883000Y-9183000D02*
X6853000Y-9213000D01*
X6917500Y-5675000D02*
X6947500Y-5705000D01*
X6947500Y-5675000D02*
X6917500Y-5705000D01*
X6943938Y-6056062D02*
X6973938Y-6086062D01*
X6973938Y-6056062D02*
X6943938Y-6086062D01*
X6953018Y-6330951D02*
X6983018Y-6360951D01*
X6983018Y-6330951D02*
X6953018Y-6360951D01*
X6985000Y-4486000D02*
X7015000Y-4516000D01*
X7015000Y-4486000D02*
X6985000Y-4516000D01*
X7016062Y-5983938D02*
X7046062Y-6013938D01*
X7046062Y-5983938D02*
X7016062Y-6013938D01*
X7020901Y-6263069D02*
X7050901Y-6293069D01*
X7050901Y-6263069D02*
X7020901Y-6293069D01*
X7083000Y-8335000D02*
X7113000Y-8365000D01*
X7113000Y-8335000D02*
X7083000Y-8365000D01*
X7085000Y-8237000D02*
X7115000Y-8267000D01*
X7115000Y-8237000D02*
X7085000Y-8267000D01*
X7094440Y-6591059D02*
X7124440Y-6621059D01*
X7124440Y-6591059D02*
X7094440Y-6621059D01*
X7137000Y-9985000D02*
X7167000Y-10015000D01*
X7167000Y-9985000D02*
X7137000Y-10015000D01*
X7162322Y-6658941D02*
X7192322Y-6688941D01*
X7192322Y-6658941D02*
X7162322Y-6688941D01*
X7233000Y-9985000D02*
X7263000Y-10015000D01*
X7263000Y-9985000D02*
X7233000Y-10015000D01*
X7233000Y-10385000D02*
X7263000Y-10415000D01*
X7263000Y-10385000D02*
X7233000Y-10415000D01*
X7485000Y-7985000D02*
X7515000Y-8015000D01*
X7515000Y-7985000D02*
X7485000Y-8015000D01*
X7585000Y-7985000D02*
X7615000Y-8015000D01*
X7615000Y-7985000D02*
X7585000Y-8015000D01*
X7685000Y-7985000D02*
X7715000Y-8015000D01*
X7715000Y-7985000D02*
X7685000Y-8015000D01*
X7725000Y-8345000D02*
X7755000Y-8375000D01*
X7755000Y-8345000D02*
X7725000Y-8375000D01*
X7785000Y-7985000D02*
X7815000Y-8015000D01*
X7815000Y-7985000D02*
X7785000Y-8015000D01*
X7871250Y-8985000D02*
X7901250Y-9015000D01*
X7901250Y-8985000D02*
X7871250Y-9015000D01*
X7871250Y-9385000D02*
X7901250Y-9415000D01*
X7901250Y-9385000D02*
X7871250Y-9415000D01*
X7871250Y-9785000D02*
X7901250Y-9815000D01*
X7901250Y-9785000D02*
X7871250Y-9815000D01*
X7876000Y-8375000D02*
X7906000Y-8405000D01*
X7906000Y-8375000D02*
X7876000Y-8405000D01*
X8098750Y-8890000D02*
X8128750Y-8920000D01*
X8128750Y-8890000D02*
X8098750Y-8920000D01*
X8098750Y-9290000D02*
X8128750Y-9320000D01*
X8128750Y-9290000D02*
X8098750Y-9320000D01*
X8098750Y-9690000D02*
X8128750Y-9720000D01*
X8128750Y-9690000D02*
X8098750Y-9720000D01*
X6098000Y-10293000D02*
G75*
G02*
X6038000Y-10293000I-30000J0D01*
G01*
X6038000Y-10293000D02*
G75*
G02*
X6098000Y-10293000I30000J0D01*
G01*
X6038000Y-10238000D02*
X6038000Y-10348000D01*
X6098000Y-10348000D02*
G75*
G02*
X6038000Y-10348000I-30000J0D01*
G01*
X6098000Y-10348000D02*
X6098000Y-10238000D01*
X6098000Y-10238000D02*
G75*
G03*
X6038000Y-10238000I-30000J0D01*
G01*
X6098000Y-10711000D02*
G75*
G02*
X6038000Y-10711000I-30000J0D01*
G01*
X6038000Y-10711000D02*
G75*
G02*
X6098000Y-10711000I30000J0D01*
G01*
X6038000Y-10681000D02*
X6038000Y-10741000D01*
X6098000Y-10741000D02*
G75*
G02*
X6038000Y-10741000I-30000J0D01*
G01*
X6098000Y-10741000D02*
X6098000Y-10681000D01*
X6098000Y-10681000D02*
G75*
G03*
X6038000Y-10681000I-30000J0D01*
G01*
X6962000Y-10293000D02*
G75*
G02*
X6902000Y-10293000I-30000J0D01*
G01*
X6902000Y-10293000D02*
G75*
G02*
X6962000Y-10293000I30000J0D01*
G01*
X6902000Y-10238000D02*
X6902000Y-10348000D01*
X6962000Y-10348000D02*
G75*
G02*
X6902000Y-10348000I-30000J0D01*
G01*
X6962000Y-10348000D02*
X6962000Y-10238000D01*
X6962000Y-10238000D02*
G75*
G03*
X6902000Y-10238000I-30000J0D01*
G01*
X6962000Y-10711000D02*
G75*
G02*
X6902000Y-10711000I-30000J0D01*
G01*
X6902000Y-10711000D02*
G75*
G02*
X6962000Y-10711000I30000J0D01*
G01*
X6902000Y-10681000D02*
X6902000Y-10741000D01*
X6962000Y-10741000D02*
G75*
G02*
X6902000Y-10741000I-30000J0D01*
G01*
X6962000Y-10741000D02*
X6962000Y-10681000D01*
X6962000Y-10681000D02*
G75*
G03*
X6902000Y-10681000I-30000J0D01*
G01*
X4372500Y-5053000D02*
X4372500Y-5153000D01*
X4322500Y-5103000D02*
X4422500Y-5103000D01*
X4372500Y-5307000D02*
X4372500Y-5407000D01*
X4322500Y-5357000D02*
X4422500Y-5357000D01*
X4372500Y-5561000D02*
X4372500Y-5661000D01*
X4322500Y-5611000D02*
X4422500Y-5611000D01*
X4372500Y-5815000D02*
X4372500Y-5915000D01*
X4322500Y-5865000D02*
X4422500Y-5865000D01*
X4372500Y-6069000D02*
X4372500Y-6169000D01*
X4322500Y-6119000D02*
X4422500Y-6119000D01*
X4372500Y-6323000D02*
X4372500Y-6423000D01*
X4322500Y-6373000D02*
X4422500Y-6373000D01*
X4372500Y-6577000D02*
X4372500Y-6677000D01*
X4322500Y-6627000D02*
X4422500Y-6627000D01*
X4372500Y-6831000D02*
X4372500Y-6931000D01*
X4322500Y-6881000D02*
X4422500Y-6881000D01*
X4372500Y-7085000D02*
X4372500Y-7185000D01*
X4322500Y-7135000D02*
X4422500Y-7135000D01*
X4372500Y-7339000D02*
X4372500Y-7439000D01*
X4322500Y-7389000D02*
X4422500Y-7389000D01*
X4372500Y-7593000D02*
X4372500Y-7693000D01*
X4322500Y-7643000D02*
X4422500Y-7643000D01*
X4372500Y-7847000D02*
X4372500Y-7947000D01*
X4322500Y-7897000D02*
X4422500Y-7897000D01*
X4626500Y-5053000D02*
X4626500Y-5153000D01*
X4576500Y-5103000D02*
X4676500Y-5103000D01*
X4626500Y-5307000D02*
X4626500Y-5407000D01*
X4576500Y-5357000D02*
X4676500Y-5357000D01*
X4626500Y-5561000D02*
X4626500Y-5661000D01*
X4576500Y-5611000D02*
X4676500Y-5611000D01*
X4626500Y-5815000D02*
X4626500Y-5915000D01*
X4576500Y-5865000D02*
X4676500Y-5865000D01*
X4626500Y-6069000D02*
X4626500Y-6169000D01*
X4576500Y-6119000D02*
X4676500Y-6119000D01*
X4626500Y-6323000D02*
X4626500Y-6423000D01*
X4576500Y-6373000D02*
X4676500Y-6373000D01*
X4626500Y-6577000D02*
X4626500Y-6677000D01*
X4576500Y-6627000D02*
X4676500Y-6627000D01*
X4626500Y-6831000D02*
X4626500Y-6931000D01*
X4576500Y-6881000D02*
X4676500Y-6881000D01*
X4626500Y-7085000D02*
X4626500Y-7185000D01*
X4576500Y-7135000D02*
X4676500Y-7135000D01*
X4626500Y-7339000D02*
X4626500Y-7439000D01*
X4576500Y-7389000D02*
X4676500Y-7389000D01*
X4626500Y-7593000D02*
X4626500Y-7693000D01*
X4576500Y-7643000D02*
X4676500Y-7643000D01*
X4626500Y-7847000D02*
X4626500Y-7947000D01*
X4576500Y-7897000D02*
X4676500Y-7897000D01*
X8272500Y-5053000D02*
X8272500Y-5153000D01*
X8222500Y-5103000D02*
X8322500Y-5103000D01*
X8272500Y-5307000D02*
X8272500Y-5407000D01*
X8222500Y-5357000D02*
X8322500Y-5357000D01*
X8272500Y-5561000D02*
X8272500Y-5661000D01*
X8222500Y-5611000D02*
X8322500Y-5611000D01*
X8272500Y-5815000D02*
X8272500Y-5915000D01*
X8222500Y-5865000D02*
X8322500Y-5865000D01*
X8272500Y-6069000D02*
X8272500Y-6169000D01*
X8222500Y-6119000D02*
X8322500Y-6119000D01*
X8272500Y-6323000D02*
X8272500Y-6423000D01*
X8222500Y-6373000D02*
X8322500Y-6373000D01*
X8272500Y-6577000D02*
X8272500Y-6677000D01*
X8222500Y-6627000D02*
X8322500Y-6627000D01*
X8272500Y-6831000D02*
X8272500Y-6931000D01*
X8222500Y-6881000D02*
X8322500Y-6881000D01*
X8272500Y-7085000D02*
X8272500Y-7185000D01*
X8222500Y-7135000D02*
X8322500Y-7135000D01*
X8272500Y-7339000D02*
X8272500Y-7439000D01*
X8222500Y-7389000D02*
X8322500Y-7389000D01*
X8272500Y-7593000D02*
X8272500Y-7693000D01*
X8222500Y-7643000D02*
X8322500Y-7643000D01*
X8272500Y-7847000D02*
X8272500Y-7947000D01*
X8222500Y-7897000D02*
X8322500Y-7897000D01*
X8526500Y-5053000D02*
X8526500Y-5153000D01*
X8476500Y-5103000D02*
X8576500Y-5103000D01*
X8526500Y-5307000D02*
X8526500Y-5407000D01*
X8476500Y-5357000D02*
X8576500Y-5357000D01*
X8526500Y-5561000D02*
X8526500Y-5661000D01*
X8476500Y-5611000D02*
X8576500Y-5611000D01*
X8526500Y-5815000D02*
X8526500Y-5915000D01*
X8476500Y-5865000D02*
X8576500Y-5865000D01*
X8526500Y-6069000D02*
X8526500Y-6169000D01*
X8476500Y-6119000D02*
X8576500Y-6119000D01*
X8526500Y-6323000D02*
X8526500Y-6423000D01*
X8476500Y-6373000D02*
X8576500Y-6373000D01*
X8526500Y-6577000D02*
X8526500Y-6677000D01*
X8476500Y-6627000D02*
X8576500Y-6627000D01*
X8526500Y-6831000D02*
X8526500Y-6931000D01*
X8476500Y-6881000D02*
X8576500Y-6881000D01*
X8526500Y-7085000D02*
X8526500Y-7185000D01*
X8476500Y-7135000D02*
X8576500Y-7135000D01*
X8526500Y-7339000D02*
X8526500Y-7439000D01*
X8476500Y-7389000D02*
X8576500Y-7389000D01*
X8526500Y-7593000D02*
X8526500Y-7693000D01*
X8476500Y-7643000D02*
X8576500Y-7643000D01*
X8526500Y-7847000D02*
X8526500Y-7947000D01*
X8476500Y-7897000D02*
X8576500Y-7897000D01*
X6233981Y-10368981D02*
X6233981Y-10323019D01*
X6188019Y-10323019D01*
X6188019Y-10368981D01*
X6233981Y-10368981D01*
X6811981Y-10368981D02*
X6811981Y-10323019D01*
X6766019Y-10323019D01*
X6766019Y-10368981D01*
X6811981Y-10368981D01*
X6500000Y-4100000D02*
X6537500Y-4062500D01*
X6500000Y-4025000D01*
X6462500Y-4062500D01*
X6500000Y-4100000D01*
X6500000Y-4375000D02*
X6537500Y-4337500D01*
X6500000Y-4300000D01*
X6462500Y-4337500D01*
X6500000Y-4375000D01*
D13*
X4340000Y-4340000D02*
X4660000Y-4660000D01*
X4660000Y-4340000D02*
X4340000Y-4660000D01*
X4660000Y-4500000D02*
G75*
G02*
X4340000Y-4500000I-160000J0D01*
G01*
X4340000Y-4500000D02*
G75*
G02*
X4660000Y-4500000I160000J0D01*
G01*
X4340000Y-10340000D02*
X4660000Y-10660000D01*
X4660000Y-10340000D02*
X4340000Y-10660000D01*
X4660000Y-10500000D02*
G75*
G02*
X4340000Y-10500000I-160000J0D01*
G01*
X4340000Y-10500000D02*
G75*
G02*
X4660000Y-10500000I160000J0D01*
G01*
X8340000Y-4340000D02*
X8660000Y-4660000D01*
X8660000Y-4340000D02*
X8340000Y-4660000D01*
X8660000Y-4500000D02*
G75*
G02*
X8340000Y-4500000I-160000J0D01*
G01*
X8340000Y-4500000D02*
G75*
G02*
X8660000Y-4500000I160000J0D01*
G01*
X8340000Y-10340000D02*
X8660000Y-10660000D01*
X8660000Y-10340000D02*
X8340000Y-10660000D01*
X8660000Y-10500000D02*
G75*
G02*
X8340000Y-10500000I-160000J0D01*
G01*
X8340000Y-10500000D02*
G75*
G02*
X8660000Y-10500000I160000J0D01*
G01*
D11*
X4258276Y-11313984D02*
X4258276Y-11113984D01*
X4258276Y-11113984D02*
X4305895Y-11113984D01*
X4305895Y-11113984D02*
X4334467Y-11123508D01*
X4334467Y-11123508D02*
X4353515Y-11142556D01*
X4353515Y-11142556D02*
X4363038Y-11161603D01*
X4363038Y-11161603D02*
X4372562Y-11199698D01*
X4372562Y-11199698D02*
X4372562Y-11228270D01*
X4372562Y-11228270D02*
X4363038Y-11266365D01*
X4363038Y-11266365D02*
X4353515Y-11285413D01*
X4353515Y-11285413D02*
X4334467Y-11304460D01*
X4334467Y-11304460D02*
X4305895Y-11313984D01*
X4305895Y-11313984D02*
X4258276Y-11313984D01*
X4458276Y-11313984D02*
X4458276Y-11180651D01*
X4458276Y-11218746D02*
X4467800Y-11199698D01*
X4467800Y-11199698D02*
X4477324Y-11190175D01*
X4477324Y-11190175D02*
X4496372Y-11180651D01*
X4496372Y-11180651D02*
X4515419Y-11180651D01*
X4582086Y-11313984D02*
X4582086Y-11180651D01*
X4582086Y-11113984D02*
X4572562Y-11123508D01*
X4572562Y-11123508D02*
X4582086Y-11133032D01*
X4582086Y-11133032D02*
X4591610Y-11123508D01*
X4591610Y-11123508D02*
X4582086Y-11113984D01*
X4582086Y-11113984D02*
X4582086Y-11133032D01*
X4705895Y-11313984D02*
X4686848Y-11304460D01*
X4686848Y-11304460D02*
X4677324Y-11285413D01*
X4677324Y-11285413D02*
X4677324Y-11113984D01*
X4810657Y-11313984D02*
X4791610Y-11304460D01*
X4791610Y-11304460D02*
X4782086Y-11285413D01*
X4782086Y-11285413D02*
X4782086Y-11113984D01*
X5039229Y-11313984D02*
X5039229Y-11113984D01*
X5039229Y-11113984D02*
X5105896Y-11256841D01*
X5105896Y-11256841D02*
X5172562Y-11113984D01*
X5172562Y-11113984D02*
X5172562Y-11313984D01*
X5353515Y-11313984D02*
X5353515Y-11209222D01*
X5353515Y-11209222D02*
X5343991Y-11190175D01*
X5343991Y-11190175D02*
X5324943Y-11180651D01*
X5324943Y-11180651D02*
X5286848Y-11180651D01*
X5286848Y-11180651D02*
X5267800Y-11190175D01*
X5353515Y-11304460D02*
X5334467Y-11313984D01*
X5334467Y-11313984D02*
X5286848Y-11313984D01*
X5286848Y-11313984D02*
X5267800Y-11304460D01*
X5267800Y-11304460D02*
X5258276Y-11285413D01*
X5258276Y-11285413D02*
X5258276Y-11266365D01*
X5258276Y-11266365D02*
X5267800Y-11247317D01*
X5267800Y-11247317D02*
X5286848Y-11237794D01*
X5286848Y-11237794D02*
X5334467Y-11237794D01*
X5334467Y-11237794D02*
X5353515Y-11228270D01*
X5448753Y-11180651D02*
X5448753Y-11380651D01*
X5448753Y-11190175D02*
X5467800Y-11180651D01*
X5467800Y-11180651D02*
X5505896Y-11180651D01*
X5505896Y-11180651D02*
X5524943Y-11190175D01*
X5524943Y-11190175D02*
X5534467Y-11199698D01*
X5534467Y-11199698D02*
X5543991Y-11218746D01*
X5543991Y-11218746D02*
X5543991Y-11275889D01*
X5543991Y-11275889D02*
X5534467Y-11294936D01*
X5534467Y-11294936D02*
X5524943Y-11304460D01*
X5524943Y-11304460D02*
X5505896Y-11313984D01*
X5505896Y-11313984D02*
X5467800Y-11313984D01*
X5467800Y-11313984D02*
X5448753Y-11304460D01*
X5629705Y-11294936D02*
X5639229Y-11304460D01*
X5639229Y-11304460D02*
X5629705Y-11313984D01*
X5629705Y-11313984D02*
X5620181Y-11304460D01*
X5620181Y-11304460D02*
X5629705Y-11294936D01*
X5629705Y-11294936D02*
X5629705Y-11313984D01*
X5629705Y-11190175D02*
X5639229Y-11199698D01*
X5639229Y-11199698D02*
X5629705Y-11209222D01*
X5629705Y-11209222D02*
X5620181Y-11199698D01*
X5620181Y-11199698D02*
X5629705Y-11190175D01*
X5629705Y-11190175D02*
X5629705Y-11209222D01*
D12*
X3967500Y-11627500D02*
X3997500Y-11657500D01*
X3997500Y-11627500D02*
X3967500Y-11657500D01*
D11*
X4296372Y-11533984D02*
X4315419Y-11533984D01*
X4315419Y-11533984D02*
X4334467Y-11543508D01*
X4334467Y-11543508D02*
X4343991Y-11553032D01*
X4343991Y-11553032D02*
X4353515Y-11572079D01*
X4353515Y-11572079D02*
X4363038Y-11610175D01*
X4363038Y-11610175D02*
X4363038Y-11657794D01*
X4363038Y-11657794D02*
X4353515Y-11695889D01*
X4353515Y-11695889D02*
X4343991Y-11714936D01*
X4343991Y-11714936D02*
X4334467Y-11724460D01*
X4334467Y-11724460D02*
X4315419Y-11733984D01*
X4315419Y-11733984D02*
X4296372Y-11733984D01*
X4296372Y-11733984D02*
X4277324Y-11724460D01*
X4277324Y-11724460D02*
X4267800Y-11714936D01*
X4267800Y-11714936D02*
X4258276Y-11695889D01*
X4258276Y-11695889D02*
X4248753Y-11657794D01*
X4248753Y-11657794D02*
X4248753Y-11610175D01*
X4248753Y-11610175D02*
X4258276Y-11572079D01*
X4258276Y-11572079D02*
X4267800Y-11553032D01*
X4267800Y-11553032D02*
X4277324Y-11543508D01*
X4277324Y-11543508D02*
X4296372Y-11533984D01*
X4448753Y-11714936D02*
X4458276Y-11724460D01*
X4458276Y-11724460D02*
X4448753Y-11733984D01*
X4448753Y-11733984D02*
X4439229Y-11724460D01*
X4439229Y-11724460D02*
X4448753Y-11714936D01*
X4448753Y-11714936D02*
X4448753Y-11733984D01*
X4524943Y-11533984D02*
X4648753Y-11533984D01*
X4648753Y-11533984D02*
X4582086Y-11610175D01*
X4582086Y-11610175D02*
X4610657Y-11610175D01*
X4610657Y-11610175D02*
X4629705Y-11619698D01*
X4629705Y-11619698D02*
X4639229Y-11629222D01*
X4639229Y-11629222D02*
X4648753Y-11648270D01*
X4648753Y-11648270D02*
X4648753Y-11695889D01*
X4648753Y-11695889D02*
X4639229Y-11714936D01*
X4639229Y-11714936D02*
X4629705Y-11724460D01*
X4629705Y-11724460D02*
X4610657Y-11733984D01*
X4610657Y-11733984D02*
X4553515Y-11733984D01*
X4553515Y-11733984D02*
X4534467Y-11724460D01*
X4534467Y-11724460D02*
X4524943Y-11714936D01*
X4772562Y-11533984D02*
X4791610Y-11533984D01*
X4791610Y-11533984D02*
X4810657Y-11543508D01*
X4810657Y-11543508D02*
X4820181Y-11553032D01*
X4820181Y-11553032D02*
X4829705Y-11572079D01*
X4829705Y-11572079D02*
X4839229Y-11610175D01*
X4839229Y-11610175D02*
X4839229Y-11657794D01*
X4839229Y-11657794D02*
X4829705Y-11695889D01*
X4829705Y-11695889D02*
X4820181Y-11714936D01*
X4820181Y-11714936D02*
X4810657Y-11724460D01*
X4810657Y-11724460D02*
X4791610Y-11733984D01*
X4791610Y-11733984D02*
X4772562Y-11733984D01*
X4772562Y-11733984D02*
X4753515Y-11724460D01*
X4753515Y-11724460D02*
X4743991Y-11714936D01*
X4743991Y-11714936D02*
X4734467Y-11695889D01*
X4734467Y-11695889D02*
X4724943Y-11657794D01*
X4724943Y-11657794D02*
X4724943Y-11610175D01*
X4724943Y-11610175D02*
X4734467Y-11572079D01*
X4734467Y-11572079D02*
X4743991Y-11553032D01*
X4743991Y-11553032D02*
X4753515Y-11543508D01*
X4753515Y-11543508D02*
X4772562Y-11533984D01*
X4963038Y-11533984D02*
X4982086Y-11533984D01*
X4982086Y-11533984D02*
X5001134Y-11543508D01*
X5001134Y-11543508D02*
X5010657Y-11553032D01*
X5010657Y-11553032D02*
X5020181Y-11572079D01*
X5020181Y-11572079D02*
X5029705Y-11610175D01*
X5029705Y-11610175D02*
X5029705Y-11657794D01*
X5029705Y-11657794D02*
X5020181Y-11695889D01*
X5020181Y-11695889D02*
X5010657Y-11714936D01*
X5010657Y-11714936D02*
X5001134Y-11724460D01*
X5001134Y-11724460D02*
X4982086Y-11733984D01*
X4982086Y-11733984D02*
X4963038Y-11733984D01*
X4963038Y-11733984D02*
X4943991Y-11724460D01*
X4943991Y-11724460D02*
X4934467Y-11714936D01*
X4934467Y-11714936D02*
X4924943Y-11695889D01*
X4924943Y-11695889D02*
X4915419Y-11657794D01*
X4915419Y-11657794D02*
X4915419Y-11610175D01*
X4915419Y-11610175D02*
X4924943Y-11572079D01*
X4924943Y-11572079D02*
X4934467Y-11553032D01*
X4934467Y-11553032D02*
X4943991Y-11543508D01*
X4943991Y-11543508D02*
X4963038Y-11533984D01*
X5115419Y-11733984D02*
X5115419Y-11600651D01*
X5115419Y-11619698D02*
X5124943Y-11610175D01*
X5124943Y-11610175D02*
X5143991Y-11600651D01*
X5143991Y-11600651D02*
X5172562Y-11600651D01*
X5172562Y-11600651D02*
X5191610Y-11610175D01*
X5191610Y-11610175D02*
X5201134Y-11629222D01*
X5201134Y-11629222D02*
X5201134Y-11733984D01*
X5201134Y-11629222D02*
X5210657Y-11610175D01*
X5210657Y-11610175D02*
X5229705Y-11600651D01*
X5229705Y-11600651D02*
X5258276Y-11600651D01*
X5258276Y-11600651D02*
X5277324Y-11610175D01*
X5277324Y-11610175D02*
X5286848Y-11629222D01*
X5286848Y-11629222D02*
X5286848Y-11733984D01*
X5382086Y-11733984D02*
X5382086Y-11600651D01*
X5382086Y-11619698D02*
X5391610Y-11610175D01*
X5391610Y-11610175D02*
X5410657Y-11600651D01*
X5410657Y-11600651D02*
X5439229Y-11600651D01*
X5439229Y-11600651D02*
X5458277Y-11610175D01*
X5458277Y-11610175D02*
X5467800Y-11629222D01*
X5467800Y-11629222D02*
X5467800Y-11733984D01*
X5467800Y-11629222D02*
X5477324Y-11610175D01*
X5477324Y-11610175D02*
X5496372Y-11600651D01*
X5496372Y-11600651D02*
X5524943Y-11600651D01*
X5524943Y-11600651D02*
X5543991Y-11610175D01*
X5543991Y-11610175D02*
X5553515Y-11629222D01*
X5553515Y-11629222D02*
X5553515Y-11733984D01*
X5943991Y-11524460D02*
X5772562Y-11781603D01*
X6201134Y-11533984D02*
X6220181Y-11533984D01*
X6220181Y-11533984D02*
X6239229Y-11543508D01*
X6239229Y-11543508D02*
X6248753Y-11553032D01*
X6248753Y-11553032D02*
X6258277Y-11572079D01*
X6258277Y-11572079D02*
X6267800Y-11610175D01*
X6267800Y-11610175D02*
X6267800Y-11657794D01*
X6267800Y-11657794D02*
X6258277Y-11695889D01*
X6258277Y-11695889D02*
X6248753Y-11714936D01*
X6248753Y-11714936D02*
X6239229Y-11724460D01*
X6239229Y-11724460D02*
X6220181Y-11733984D01*
X6220181Y-11733984D02*
X6201134Y-11733984D01*
X6201134Y-11733984D02*
X6182086Y-11724460D01*
X6182086Y-11724460D02*
X6172562Y-11714936D01*
X6172562Y-11714936D02*
X6163038Y-11695889D01*
X6163038Y-11695889D02*
X6153515Y-11657794D01*
X6153515Y-11657794D02*
X6153515Y-11610175D01*
X6153515Y-11610175D02*
X6163038Y-11572079D01*
X6163038Y-11572079D02*
X6172562Y-11553032D01*
X6172562Y-11553032D02*
X6182086Y-11543508D01*
X6182086Y-11543508D02*
X6201134Y-11533984D01*
X6353515Y-11714936D02*
X6363038Y-11724460D01*
X6363038Y-11724460D02*
X6353515Y-11733984D01*
X6353515Y-11733984D02*
X6343991Y-11724460D01*
X6343991Y-11724460D02*
X6353515Y-11714936D01*
X6353515Y-11714936D02*
X6353515Y-11733984D01*
X6486848Y-11533984D02*
X6505896Y-11533984D01*
X6505896Y-11533984D02*
X6524943Y-11543508D01*
X6524943Y-11543508D02*
X6534467Y-11553032D01*
X6534467Y-11553032D02*
X6543991Y-11572079D01*
X6543991Y-11572079D02*
X6553515Y-11610175D01*
X6553515Y-11610175D02*
X6553515Y-11657794D01*
X6553515Y-11657794D02*
X6543991Y-11695889D01*
X6543991Y-11695889D02*
X6534467Y-11714936D01*
X6534467Y-11714936D02*
X6524943Y-11724460D01*
X6524943Y-11724460D02*
X6505896Y-11733984D01*
X6505896Y-11733984D02*
X6486848Y-11733984D01*
X6486848Y-11733984D02*
X6467800Y-11724460D01*
X6467800Y-11724460D02*
X6458277Y-11714936D01*
X6458277Y-11714936D02*
X6448753Y-11695889D01*
X6448753Y-11695889D02*
X6439229Y-11657794D01*
X6439229Y-11657794D02*
X6439229Y-11610175D01*
X6439229Y-11610175D02*
X6448753Y-11572079D01*
X6448753Y-11572079D02*
X6458277Y-11553032D01*
X6458277Y-11553032D02*
X6467800Y-11543508D01*
X6467800Y-11543508D02*
X6486848Y-11533984D01*
X6743991Y-11733984D02*
X6629705Y-11733984D01*
X6686848Y-11733984D02*
X6686848Y-11533984D01*
X6686848Y-11533984D02*
X6667800Y-11562556D01*
X6667800Y-11562556D02*
X6648753Y-11581603D01*
X6648753Y-11581603D02*
X6629705Y-11591127D01*
X6934467Y-11733984D02*
X6820181Y-11733984D01*
X6877324Y-11733984D02*
X6877324Y-11533984D01*
X6877324Y-11533984D02*
X6858277Y-11562556D01*
X6858277Y-11562556D02*
X6839229Y-11581603D01*
X6839229Y-11581603D02*
X6820181Y-11591127D01*
X7048753Y-11619698D02*
X7029705Y-11610175D01*
X7029705Y-11610175D02*
X7020181Y-11600651D01*
X7020181Y-11600651D02*
X7010658Y-11581603D01*
X7010658Y-11581603D02*
X7010658Y-11572079D01*
X7010658Y-11572079D02*
X7020181Y-11553032D01*
X7020181Y-11553032D02*
X7029705Y-11543508D01*
X7029705Y-11543508D02*
X7048753Y-11533984D01*
X7048753Y-11533984D02*
X7086848Y-11533984D01*
X7086848Y-11533984D02*
X7105896Y-11543508D01*
X7105896Y-11543508D02*
X7115419Y-11553032D01*
X7115419Y-11553032D02*
X7124943Y-11572079D01*
X7124943Y-11572079D02*
X7124943Y-11581603D01*
X7124943Y-11581603D02*
X7115419Y-11600651D01*
X7115419Y-11600651D02*
X7105896Y-11610175D01*
X7105896Y-11610175D02*
X7086848Y-11619698D01*
X7086848Y-11619698D02*
X7048753Y-11619698D01*
X7048753Y-11619698D02*
X7029705Y-11629222D01*
X7029705Y-11629222D02*
X7020181Y-11638746D01*
X7020181Y-11638746D02*
X7010658Y-11657794D01*
X7010658Y-11657794D02*
X7010658Y-11695889D01*
X7010658Y-11695889D02*
X7020181Y-11714936D01*
X7020181Y-11714936D02*
X7029705Y-11724460D01*
X7029705Y-11724460D02*
X7048753Y-11733984D01*
X7048753Y-11733984D02*
X7086848Y-11733984D01*
X7086848Y-11733984D02*
X7105896Y-11724460D01*
X7105896Y-11724460D02*
X7115419Y-11714936D01*
X7115419Y-11714936D02*
X7124943Y-11695889D01*
X7124943Y-11695889D02*
X7124943Y-11657794D01*
X7124943Y-11657794D02*
X7115419Y-11638746D01*
X7115419Y-11638746D02*
X7105896Y-11629222D01*
X7105896Y-11629222D02*
X7086848Y-11619698D01*
X7201134Y-11533984D02*
X7201134Y-11572079D01*
X7277324Y-11533984D02*
X7277324Y-11572079D01*
X7572562Y-11810175D02*
X7563039Y-11800651D01*
X7563039Y-11800651D02*
X7543991Y-11772079D01*
X7543991Y-11772079D02*
X7534467Y-11753032D01*
X7534467Y-11753032D02*
X7524943Y-11724460D01*
X7524943Y-11724460D02*
X7515420Y-11676841D01*
X7515420Y-11676841D02*
X7515420Y-11638746D01*
X7515420Y-11638746D02*
X7524943Y-11591127D01*
X7524943Y-11591127D02*
X7534467Y-11562556D01*
X7534467Y-11562556D02*
X7543991Y-11543508D01*
X7543991Y-11543508D02*
X7563039Y-11514936D01*
X7563039Y-11514936D02*
X7572562Y-11505413D01*
X7677324Y-11619698D02*
X7658277Y-11610175D01*
X7658277Y-11610175D02*
X7648753Y-11600651D01*
X7648753Y-11600651D02*
X7639229Y-11581603D01*
X7639229Y-11581603D02*
X7639229Y-11572079D01*
X7639229Y-11572079D02*
X7648753Y-11553032D01*
X7648753Y-11553032D02*
X7658277Y-11543508D01*
X7658277Y-11543508D02*
X7677324Y-11533984D01*
X7677324Y-11533984D02*
X7715420Y-11533984D01*
X7715420Y-11533984D02*
X7734467Y-11543508D01*
X7734467Y-11543508D02*
X7743991Y-11553032D01*
X7743991Y-11553032D02*
X7753515Y-11572079D01*
X7753515Y-11572079D02*
X7753515Y-11581603D01*
X7753515Y-11581603D02*
X7743991Y-11600651D01*
X7743991Y-11600651D02*
X7734467Y-11610175D01*
X7734467Y-11610175D02*
X7715420Y-11619698D01*
X7715420Y-11619698D02*
X7677324Y-11619698D01*
X7677324Y-11619698D02*
X7658277Y-11629222D01*
X7658277Y-11629222D02*
X7648753Y-11638746D01*
X7648753Y-11638746D02*
X7639229Y-11657794D01*
X7639229Y-11657794D02*
X7639229Y-11695889D01*
X7639229Y-11695889D02*
X7648753Y-11714936D01*
X7648753Y-11714936D02*
X7658277Y-11724460D01*
X7658277Y-11724460D02*
X7677324Y-11733984D01*
X7677324Y-11733984D02*
X7715420Y-11733984D01*
X7715420Y-11733984D02*
X7734467Y-11724460D01*
X7734467Y-11724460D02*
X7743991Y-11714936D01*
X7743991Y-11714936D02*
X7753515Y-11695889D01*
X7753515Y-11695889D02*
X7753515Y-11657794D01*
X7753515Y-11657794D02*
X7743991Y-11638746D01*
X7743991Y-11638746D02*
X7734467Y-11629222D01*
X7734467Y-11629222D02*
X7715420Y-11619698D01*
X7829705Y-11553032D02*
X7839229Y-11543508D01*
X7839229Y-11543508D02*
X7858277Y-11533984D01*
X7858277Y-11533984D02*
X7905896Y-11533984D01*
X7905896Y-11533984D02*
X7924943Y-11543508D01*
X7924943Y-11543508D02*
X7934467Y-11553032D01*
X7934467Y-11553032D02*
X7943991Y-11572079D01*
X7943991Y-11572079D02*
X7943991Y-11591127D01*
X7943991Y-11591127D02*
X7934467Y-11619698D01*
X7934467Y-11619698D02*
X7820181Y-11733984D01*
X7820181Y-11733984D02*
X7943991Y-11733984D01*
X8182086Y-11733984D02*
X8182086Y-11533984D01*
X8267801Y-11733984D02*
X8267801Y-11629222D01*
X8267801Y-11629222D02*
X8258277Y-11610175D01*
X8258277Y-11610175D02*
X8239229Y-11600651D01*
X8239229Y-11600651D02*
X8210658Y-11600651D01*
X8210658Y-11600651D02*
X8191610Y-11610175D01*
X8191610Y-11610175D02*
X8182086Y-11619698D01*
X8391610Y-11733984D02*
X8372562Y-11724460D01*
X8372562Y-11724460D02*
X8363039Y-11714936D01*
X8363039Y-11714936D02*
X8353515Y-11695889D01*
X8353515Y-11695889D02*
X8353515Y-11638746D01*
X8353515Y-11638746D02*
X8363039Y-11619698D01*
X8363039Y-11619698D02*
X8372562Y-11610175D01*
X8372562Y-11610175D02*
X8391610Y-11600651D01*
X8391610Y-11600651D02*
X8420182Y-11600651D01*
X8420182Y-11600651D02*
X8439229Y-11610175D01*
X8439229Y-11610175D02*
X8448753Y-11619698D01*
X8448753Y-11619698D02*
X8458277Y-11638746D01*
X8458277Y-11638746D02*
X8458277Y-11695889D01*
X8458277Y-11695889D02*
X8448753Y-11714936D01*
X8448753Y-11714936D02*
X8439229Y-11724460D01*
X8439229Y-11724460D02*
X8420182Y-11733984D01*
X8420182Y-11733984D02*
X8391610Y-11733984D01*
X8572563Y-11733984D02*
X8553515Y-11724460D01*
X8553515Y-11724460D02*
X8543991Y-11705413D01*
X8543991Y-11705413D02*
X8543991Y-11533984D01*
X8724944Y-11724460D02*
X8705896Y-11733984D01*
X8705896Y-11733984D02*
X8667801Y-11733984D01*
X8667801Y-11733984D02*
X8648753Y-11724460D01*
X8648753Y-11724460D02*
X8639229Y-11705413D01*
X8639229Y-11705413D02*
X8639229Y-11629222D01*
X8639229Y-11629222D02*
X8648753Y-11610175D01*
X8648753Y-11610175D02*
X8667801Y-11600651D01*
X8667801Y-11600651D02*
X8705896Y-11600651D01*
X8705896Y-11600651D02*
X8724944Y-11610175D01*
X8724944Y-11610175D02*
X8734467Y-11629222D01*
X8734467Y-11629222D02*
X8734467Y-11648270D01*
X8734467Y-11648270D02*
X8639229Y-11667317D01*
X8810658Y-11724460D02*
X8829705Y-11733984D01*
X8829705Y-11733984D02*
X8867801Y-11733984D01*
X8867801Y-11733984D02*
X8886848Y-11724460D01*
X8886848Y-11724460D02*
X8896372Y-11705413D01*
X8896372Y-11705413D02*
X8896372Y-11695889D01*
X8896372Y-11695889D02*
X8886848Y-11676841D01*
X8886848Y-11676841D02*
X8867801Y-11667317D01*
X8867801Y-11667317D02*
X8839229Y-11667317D01*
X8839229Y-11667317D02*
X8820182Y-11657794D01*
X8820182Y-11657794D02*
X8810658Y-11638746D01*
X8810658Y-11638746D02*
X8810658Y-11629222D01*
X8810658Y-11629222D02*
X8820182Y-11610175D01*
X8820182Y-11610175D02*
X8839229Y-11600651D01*
X8839229Y-11600651D02*
X8867801Y-11600651D01*
X8867801Y-11600651D02*
X8886848Y-11610175D01*
X8963039Y-11810175D02*
X8972563Y-11800651D01*
X8972563Y-11800651D02*
X8991610Y-11772079D01*
X8991610Y-11772079D02*
X9001134Y-11753032D01*
X9001134Y-11753032D02*
X9010658Y-11724460D01*
X9010658Y-11724460D02*
X9020182Y-11676841D01*
X9020182Y-11676841D02*
X9020182Y-11638746D01*
X9020182Y-11638746D02*
X9010658Y-11591127D01*
X9010658Y-11591127D02*
X9001134Y-11562556D01*
X9001134Y-11562556D02*
X8991610Y-11543508D01*
X8991610Y-11543508D02*
X8972563Y-11514936D01*
X8972563Y-11514936D02*
X8963039Y-11505413D01*
D12*
X3997500Y-11906500D02*
G75*
G02*
X3937500Y-11906500I-30000J0D01*
G01*
X3937500Y-11906500D02*
G75*
G02*
X3997500Y-11906500I30000J0D01*
G01*
D11*
X4296372Y-11797984D02*
X4315419Y-11797984D01*
X4315419Y-11797984D02*
X4334467Y-11807508D01*
X4334467Y-11807508D02*
X4343991Y-11817032D01*
X4343991Y-11817032D02*
X4353515Y-11836079D01*
X4353515Y-11836079D02*
X4363038Y-11874175D01*
X4363038Y-11874175D02*
X4363038Y-11921794D01*
X4363038Y-11921794D02*
X4353515Y-11959889D01*
X4353515Y-11959889D02*
X4343991Y-11978936D01*
X4343991Y-11978936D02*
X4334467Y-11988460D01*
X4334467Y-11988460D02*
X4315419Y-11997984D01*
X4315419Y-11997984D02*
X4296372Y-11997984D01*
X4296372Y-11997984D02*
X4277324Y-11988460D01*
X4277324Y-11988460D02*
X4267800Y-11978936D01*
X4267800Y-11978936D02*
X4258276Y-11959889D01*
X4258276Y-11959889D02*
X4248753Y-11921794D01*
X4248753Y-11921794D02*
X4248753Y-11874175D01*
X4248753Y-11874175D02*
X4258276Y-11836079D01*
X4258276Y-11836079D02*
X4267800Y-11817032D01*
X4267800Y-11817032D02*
X4277324Y-11807508D01*
X4277324Y-11807508D02*
X4296372Y-11797984D01*
X4448753Y-11978936D02*
X4458276Y-11988460D01*
X4458276Y-11988460D02*
X4448753Y-11997984D01*
X4448753Y-11997984D02*
X4439229Y-11988460D01*
X4439229Y-11988460D02*
X4448753Y-11978936D01*
X4448753Y-11978936D02*
X4448753Y-11997984D01*
X4629705Y-11797984D02*
X4591610Y-11797984D01*
X4591610Y-11797984D02*
X4572562Y-11807508D01*
X4572562Y-11807508D02*
X4563038Y-11817032D01*
X4563038Y-11817032D02*
X4543991Y-11845603D01*
X4543991Y-11845603D02*
X4534467Y-11883698D01*
X4534467Y-11883698D02*
X4534467Y-11959889D01*
X4534467Y-11959889D02*
X4543991Y-11978936D01*
X4543991Y-11978936D02*
X4553515Y-11988460D01*
X4553515Y-11988460D02*
X4572562Y-11997984D01*
X4572562Y-11997984D02*
X4610657Y-11997984D01*
X4610657Y-11997984D02*
X4629705Y-11988460D01*
X4629705Y-11988460D02*
X4639229Y-11978936D01*
X4639229Y-11978936D02*
X4648753Y-11959889D01*
X4648753Y-11959889D02*
X4648753Y-11912270D01*
X4648753Y-11912270D02*
X4639229Y-11893222D01*
X4639229Y-11893222D02*
X4629705Y-11883698D01*
X4629705Y-11883698D02*
X4610657Y-11874175D01*
X4610657Y-11874175D02*
X4572562Y-11874175D01*
X4572562Y-11874175D02*
X4553515Y-11883698D01*
X4553515Y-11883698D02*
X4543991Y-11893222D01*
X4543991Y-11893222D02*
X4534467Y-11912270D01*
X4772562Y-11797984D02*
X4791610Y-11797984D01*
X4791610Y-11797984D02*
X4810657Y-11807508D01*
X4810657Y-11807508D02*
X4820181Y-11817032D01*
X4820181Y-11817032D02*
X4829705Y-11836079D01*
X4829705Y-11836079D02*
X4839229Y-11874175D01*
X4839229Y-11874175D02*
X4839229Y-11921794D01*
X4839229Y-11921794D02*
X4829705Y-11959889D01*
X4829705Y-11959889D02*
X4820181Y-11978936D01*
X4820181Y-11978936D02*
X4810657Y-11988460D01*
X4810657Y-11988460D02*
X4791610Y-11997984D01*
X4791610Y-11997984D02*
X4772562Y-11997984D01*
X4772562Y-11997984D02*
X4753515Y-11988460D01*
X4753515Y-11988460D02*
X4743991Y-11978936D01*
X4743991Y-11978936D02*
X4734467Y-11959889D01*
X4734467Y-11959889D02*
X4724943Y-11921794D01*
X4724943Y-11921794D02*
X4724943Y-11874175D01*
X4724943Y-11874175D02*
X4734467Y-11836079D01*
X4734467Y-11836079D02*
X4743991Y-11817032D01*
X4743991Y-11817032D02*
X4753515Y-11807508D01*
X4753515Y-11807508D02*
X4772562Y-11797984D01*
X4963038Y-11797984D02*
X4982086Y-11797984D01*
X4982086Y-11797984D02*
X5001134Y-11807508D01*
X5001134Y-11807508D02*
X5010657Y-11817032D01*
X5010657Y-11817032D02*
X5020181Y-11836079D01*
X5020181Y-11836079D02*
X5029705Y-11874175D01*
X5029705Y-11874175D02*
X5029705Y-11921794D01*
X5029705Y-11921794D02*
X5020181Y-11959889D01*
X5020181Y-11959889D02*
X5010657Y-11978936D01*
X5010657Y-11978936D02*
X5001134Y-11988460D01*
X5001134Y-11988460D02*
X4982086Y-11997984D01*
X4982086Y-11997984D02*
X4963038Y-11997984D01*
X4963038Y-11997984D02*
X4943991Y-11988460D01*
X4943991Y-11988460D02*
X4934467Y-11978936D01*
X4934467Y-11978936D02*
X4924943Y-11959889D01*
X4924943Y-11959889D02*
X4915419Y-11921794D01*
X4915419Y-11921794D02*
X4915419Y-11874175D01*
X4915419Y-11874175D02*
X4924943Y-11836079D01*
X4924943Y-11836079D02*
X4934467Y-11817032D01*
X4934467Y-11817032D02*
X4943991Y-11807508D01*
X4943991Y-11807508D02*
X4963038Y-11797984D01*
X5115419Y-11997984D02*
X5115419Y-11864651D01*
X5115419Y-11883698D02*
X5124943Y-11874175D01*
X5124943Y-11874175D02*
X5143991Y-11864651D01*
X5143991Y-11864651D02*
X5172562Y-11864651D01*
X5172562Y-11864651D02*
X5191610Y-11874175D01*
X5191610Y-11874175D02*
X5201134Y-11893222D01*
X5201134Y-11893222D02*
X5201134Y-11997984D01*
X5201134Y-11893222D02*
X5210657Y-11874175D01*
X5210657Y-11874175D02*
X5229705Y-11864651D01*
X5229705Y-11864651D02*
X5258276Y-11864651D01*
X5258276Y-11864651D02*
X5277324Y-11874175D01*
X5277324Y-11874175D02*
X5286848Y-11893222D01*
X5286848Y-11893222D02*
X5286848Y-11997984D01*
X5382086Y-11997984D02*
X5382086Y-11864651D01*
X5382086Y-11883698D02*
X5391610Y-11874175D01*
X5391610Y-11874175D02*
X5410657Y-11864651D01*
X5410657Y-11864651D02*
X5439229Y-11864651D01*
X5439229Y-11864651D02*
X5458277Y-11874175D01*
X5458277Y-11874175D02*
X5467800Y-11893222D01*
X5467800Y-11893222D02*
X5467800Y-11997984D01*
X5467800Y-11893222D02*
X5477324Y-11874175D01*
X5477324Y-11874175D02*
X5496372Y-11864651D01*
X5496372Y-11864651D02*
X5524943Y-11864651D01*
X5524943Y-11864651D02*
X5543991Y-11874175D01*
X5543991Y-11874175D02*
X5553515Y-11893222D01*
X5553515Y-11893222D02*
X5553515Y-11997984D01*
X5943991Y-11788460D02*
X5772562Y-12045603D01*
X6201134Y-11797984D02*
X6220181Y-11797984D01*
X6220181Y-11797984D02*
X6239229Y-11807508D01*
X6239229Y-11807508D02*
X6248753Y-11817032D01*
X6248753Y-11817032D02*
X6258277Y-11836079D01*
X6258277Y-11836079D02*
X6267800Y-11874175D01*
X6267800Y-11874175D02*
X6267800Y-11921794D01*
X6267800Y-11921794D02*
X6258277Y-11959889D01*
X6258277Y-11959889D02*
X6248753Y-11978936D01*
X6248753Y-11978936D02*
X6239229Y-11988460D01*
X6239229Y-11988460D02*
X6220181Y-11997984D01*
X6220181Y-11997984D02*
X6201134Y-11997984D01*
X6201134Y-11997984D02*
X6182086Y-11988460D01*
X6182086Y-11988460D02*
X6172562Y-11978936D01*
X6172562Y-11978936D02*
X6163038Y-11959889D01*
X6163038Y-11959889D02*
X6153515Y-11921794D01*
X6153515Y-11921794D02*
X6153515Y-11874175D01*
X6153515Y-11874175D02*
X6163038Y-11836079D01*
X6163038Y-11836079D02*
X6172562Y-11817032D01*
X6172562Y-11817032D02*
X6182086Y-11807508D01*
X6182086Y-11807508D02*
X6201134Y-11797984D01*
X6353515Y-11978936D02*
X6363038Y-11988460D01*
X6363038Y-11988460D02*
X6353515Y-11997984D01*
X6353515Y-11997984D02*
X6343991Y-11988460D01*
X6343991Y-11988460D02*
X6353515Y-11978936D01*
X6353515Y-11978936D02*
X6353515Y-11997984D01*
X6486848Y-11797984D02*
X6505896Y-11797984D01*
X6505896Y-11797984D02*
X6524943Y-11807508D01*
X6524943Y-11807508D02*
X6534467Y-11817032D01*
X6534467Y-11817032D02*
X6543991Y-11836079D01*
X6543991Y-11836079D02*
X6553515Y-11874175D01*
X6553515Y-11874175D02*
X6553515Y-11921794D01*
X6553515Y-11921794D02*
X6543991Y-11959889D01*
X6543991Y-11959889D02*
X6534467Y-11978936D01*
X6534467Y-11978936D02*
X6524943Y-11988460D01*
X6524943Y-11988460D02*
X6505896Y-11997984D01*
X6505896Y-11997984D02*
X6486848Y-11997984D01*
X6486848Y-11997984D02*
X6467800Y-11988460D01*
X6467800Y-11988460D02*
X6458277Y-11978936D01*
X6458277Y-11978936D02*
X6448753Y-11959889D01*
X6448753Y-11959889D02*
X6439229Y-11921794D01*
X6439229Y-11921794D02*
X6439229Y-11874175D01*
X6439229Y-11874175D02*
X6448753Y-11836079D01*
X6448753Y-11836079D02*
X6458277Y-11817032D01*
X6458277Y-11817032D02*
X6467800Y-11807508D01*
X6467800Y-11807508D02*
X6486848Y-11797984D01*
X6629705Y-11817032D02*
X6639229Y-11807508D01*
X6639229Y-11807508D02*
X6658277Y-11797984D01*
X6658277Y-11797984D02*
X6705896Y-11797984D01*
X6705896Y-11797984D02*
X6724943Y-11807508D01*
X6724943Y-11807508D02*
X6734467Y-11817032D01*
X6734467Y-11817032D02*
X6743991Y-11836079D01*
X6743991Y-11836079D02*
X6743991Y-11855127D01*
X6743991Y-11855127D02*
X6734467Y-11883698D01*
X6734467Y-11883698D02*
X6620181Y-11997984D01*
X6620181Y-11997984D02*
X6743991Y-11997984D01*
X6810658Y-11797984D02*
X6934467Y-11797984D01*
X6934467Y-11797984D02*
X6867800Y-11874175D01*
X6867800Y-11874175D02*
X6896372Y-11874175D01*
X6896372Y-11874175D02*
X6915419Y-11883698D01*
X6915419Y-11883698D02*
X6924943Y-11893222D01*
X6924943Y-11893222D02*
X6934467Y-11912270D01*
X6934467Y-11912270D02*
X6934467Y-11959889D01*
X6934467Y-11959889D02*
X6924943Y-11978936D01*
X6924943Y-11978936D02*
X6915419Y-11988460D01*
X6915419Y-11988460D02*
X6896372Y-11997984D01*
X6896372Y-11997984D02*
X6839229Y-11997984D01*
X6839229Y-11997984D02*
X6820181Y-11988460D01*
X6820181Y-11988460D02*
X6810658Y-11978936D01*
X7105896Y-11797984D02*
X7067800Y-11797984D01*
X7067800Y-11797984D02*
X7048753Y-11807508D01*
X7048753Y-11807508D02*
X7039229Y-11817032D01*
X7039229Y-11817032D02*
X7020181Y-11845603D01*
X7020181Y-11845603D02*
X7010658Y-11883698D01*
X7010658Y-11883698D02*
X7010658Y-11959889D01*
X7010658Y-11959889D02*
X7020181Y-11978936D01*
X7020181Y-11978936D02*
X7029705Y-11988460D01*
X7029705Y-11988460D02*
X7048753Y-11997984D01*
X7048753Y-11997984D02*
X7086848Y-11997984D01*
X7086848Y-11997984D02*
X7105896Y-11988460D01*
X7105896Y-11988460D02*
X7115419Y-11978936D01*
X7115419Y-11978936D02*
X7124943Y-11959889D01*
X7124943Y-11959889D02*
X7124943Y-11912270D01*
X7124943Y-11912270D02*
X7115419Y-11893222D01*
X7115419Y-11893222D02*
X7105896Y-11883698D01*
X7105896Y-11883698D02*
X7086848Y-11874175D01*
X7086848Y-11874175D02*
X7048753Y-11874175D01*
X7048753Y-11874175D02*
X7029705Y-11883698D01*
X7029705Y-11883698D02*
X7020181Y-11893222D01*
X7020181Y-11893222D02*
X7010658Y-11912270D01*
X7201134Y-11797984D02*
X7201134Y-11836079D01*
X7277324Y-11797984D02*
X7277324Y-11836079D01*
X7572562Y-12074175D02*
X7563039Y-12064651D01*
X7563039Y-12064651D02*
X7543991Y-12036079D01*
X7543991Y-12036079D02*
X7534467Y-12017032D01*
X7534467Y-12017032D02*
X7524943Y-11988460D01*
X7524943Y-11988460D02*
X7515420Y-11940841D01*
X7515420Y-11940841D02*
X7515420Y-11902746D01*
X7515420Y-11902746D02*
X7524943Y-11855127D01*
X7524943Y-11855127D02*
X7534467Y-11826556D01*
X7534467Y-11826556D02*
X7543991Y-11807508D01*
X7543991Y-11807508D02*
X7563039Y-11778936D01*
X7563039Y-11778936D02*
X7572562Y-11769413D01*
X7686848Y-11797984D02*
X7705896Y-11797984D01*
X7705896Y-11797984D02*
X7724943Y-11807508D01*
X7724943Y-11807508D02*
X7734467Y-11817032D01*
X7734467Y-11817032D02*
X7743991Y-11836079D01*
X7743991Y-11836079D02*
X7753515Y-11874175D01*
X7753515Y-11874175D02*
X7753515Y-11921794D01*
X7753515Y-11921794D02*
X7743991Y-11959889D01*
X7743991Y-11959889D02*
X7734467Y-11978936D01*
X7734467Y-11978936D02*
X7724943Y-11988460D01*
X7724943Y-11988460D02*
X7705896Y-11997984D01*
X7705896Y-11997984D02*
X7686848Y-11997984D01*
X7686848Y-11997984D02*
X7667800Y-11988460D01*
X7667800Y-11988460D02*
X7658277Y-11978936D01*
X7658277Y-11978936D02*
X7648753Y-11959889D01*
X7648753Y-11959889D02*
X7639229Y-11921794D01*
X7639229Y-11921794D02*
X7639229Y-11874175D01*
X7639229Y-11874175D02*
X7648753Y-11836079D01*
X7648753Y-11836079D02*
X7658277Y-11817032D01*
X7658277Y-11817032D02*
X7667800Y-11807508D01*
X7667800Y-11807508D02*
X7686848Y-11797984D01*
X7991610Y-11997984D02*
X7991610Y-11797984D01*
X8077324Y-11997984D02*
X8077324Y-11893222D01*
X8077324Y-11893222D02*
X8067801Y-11874175D01*
X8067801Y-11874175D02*
X8048753Y-11864651D01*
X8048753Y-11864651D02*
X8020181Y-11864651D01*
X8020181Y-11864651D02*
X8001134Y-11874175D01*
X8001134Y-11874175D02*
X7991610Y-11883698D01*
X8201134Y-11997984D02*
X8182086Y-11988460D01*
X8182086Y-11988460D02*
X8172562Y-11978936D01*
X8172562Y-11978936D02*
X8163039Y-11959889D01*
X8163039Y-11959889D02*
X8163039Y-11902746D01*
X8163039Y-11902746D02*
X8172562Y-11883698D01*
X8172562Y-11883698D02*
X8182086Y-11874175D01*
X8182086Y-11874175D02*
X8201134Y-11864651D01*
X8201134Y-11864651D02*
X8229705Y-11864651D01*
X8229705Y-11864651D02*
X8248753Y-11874175D01*
X8248753Y-11874175D02*
X8258277Y-11883698D01*
X8258277Y-11883698D02*
X8267801Y-11902746D01*
X8267801Y-11902746D02*
X8267801Y-11959889D01*
X8267801Y-11959889D02*
X8258277Y-11978936D01*
X8258277Y-11978936D02*
X8248753Y-11988460D01*
X8248753Y-11988460D02*
X8229705Y-11997984D01*
X8229705Y-11997984D02*
X8201134Y-11997984D01*
X8382086Y-11997984D02*
X8363039Y-11988460D01*
X8363039Y-11988460D02*
X8353515Y-11969413D01*
X8353515Y-11969413D02*
X8353515Y-11797984D01*
X8534467Y-11988460D02*
X8515420Y-11997984D01*
X8515420Y-11997984D02*
X8477324Y-11997984D01*
X8477324Y-11997984D02*
X8458277Y-11988460D01*
X8458277Y-11988460D02*
X8448753Y-11969413D01*
X8448753Y-11969413D02*
X8448753Y-11893222D01*
X8448753Y-11893222D02*
X8458277Y-11874175D01*
X8458277Y-11874175D02*
X8477324Y-11864651D01*
X8477324Y-11864651D02*
X8515420Y-11864651D01*
X8515420Y-11864651D02*
X8534467Y-11874175D01*
X8534467Y-11874175D02*
X8543991Y-11893222D01*
X8543991Y-11893222D02*
X8543991Y-11912270D01*
X8543991Y-11912270D02*
X8448753Y-11931317D01*
X8620182Y-11988460D02*
X8639229Y-11997984D01*
X8639229Y-11997984D02*
X8677324Y-11997984D01*
X8677324Y-11997984D02*
X8696372Y-11988460D01*
X8696372Y-11988460D02*
X8705896Y-11969413D01*
X8705896Y-11969413D02*
X8705896Y-11959889D01*
X8705896Y-11959889D02*
X8696372Y-11940841D01*
X8696372Y-11940841D02*
X8677324Y-11931317D01*
X8677324Y-11931317D02*
X8648753Y-11931317D01*
X8648753Y-11931317D02*
X8629705Y-11921794D01*
X8629705Y-11921794D02*
X8620182Y-11902746D01*
X8620182Y-11902746D02*
X8620182Y-11893222D01*
X8620182Y-11893222D02*
X8629705Y-11874175D01*
X8629705Y-11874175D02*
X8648753Y-11864651D01*
X8648753Y-11864651D02*
X8677324Y-11864651D01*
X8677324Y-11864651D02*
X8696372Y-11874175D01*
X8943991Y-11921794D02*
X9096372Y-11921794D01*
X9020182Y-11997984D02*
X9020182Y-11845603D01*
X9429706Y-11864651D02*
X9429706Y-11997984D01*
X9382086Y-11788460D02*
X9334467Y-11931317D01*
X9334467Y-11931317D02*
X9458277Y-11931317D01*
X9677325Y-11988460D02*
X9696372Y-11997984D01*
X9696372Y-11997984D02*
X9734467Y-11997984D01*
X9734467Y-11997984D02*
X9753515Y-11988460D01*
X9753515Y-11988460D02*
X9763039Y-11969413D01*
X9763039Y-11969413D02*
X9763039Y-11959889D01*
X9763039Y-11959889D02*
X9753515Y-11940841D01*
X9753515Y-11940841D02*
X9734467Y-11931317D01*
X9734467Y-11931317D02*
X9705896Y-11931317D01*
X9705896Y-11931317D02*
X9686848Y-11921794D01*
X9686848Y-11921794D02*
X9677325Y-11902746D01*
X9677325Y-11902746D02*
X9677325Y-11893222D01*
X9677325Y-11893222D02*
X9686848Y-11874175D01*
X9686848Y-11874175D02*
X9705896Y-11864651D01*
X9705896Y-11864651D02*
X9734467Y-11864651D01*
X9734467Y-11864651D02*
X9753515Y-11874175D01*
X9877325Y-11997984D02*
X9858277Y-11988460D01*
X9858277Y-11988460D02*
X9848753Y-11969413D01*
X9848753Y-11969413D02*
X9848753Y-11797984D01*
X9982087Y-11997984D02*
X9963039Y-11988460D01*
X9963039Y-11988460D02*
X9953515Y-11978936D01*
X9953515Y-11978936D02*
X9943991Y-11959889D01*
X9943991Y-11959889D02*
X9943991Y-11902746D01*
X9943991Y-11902746D02*
X9953515Y-11883698D01*
X9953515Y-11883698D02*
X9963039Y-11874175D01*
X9963039Y-11874175D02*
X9982087Y-11864651D01*
X9982087Y-11864651D02*
X10010658Y-11864651D01*
X10010658Y-11864651D02*
X10029706Y-11874175D01*
X10029706Y-11874175D02*
X10039229Y-11883698D01*
X10039229Y-11883698D02*
X10048753Y-11902746D01*
X10048753Y-11902746D02*
X10048753Y-11959889D01*
X10048753Y-11959889D02*
X10039229Y-11978936D01*
X10039229Y-11978936D02*
X10029706Y-11988460D01*
X10029706Y-11988460D02*
X10010658Y-11997984D01*
X10010658Y-11997984D02*
X9982087Y-11997984D01*
X10105896Y-11864651D02*
X10182087Y-11864651D01*
X10134468Y-11797984D02*
X10134468Y-11969413D01*
X10134468Y-11969413D02*
X10143991Y-11988460D01*
X10143991Y-11988460D02*
X10163039Y-11997984D01*
X10163039Y-11997984D02*
X10182087Y-11997984D01*
X10239229Y-11988460D02*
X10258277Y-11997984D01*
X10258277Y-11997984D02*
X10296372Y-11997984D01*
X10296372Y-11997984D02*
X10315420Y-11988460D01*
X10315420Y-11988460D02*
X10324944Y-11969413D01*
X10324944Y-11969413D02*
X10324944Y-11959889D01*
X10324944Y-11959889D02*
X10315420Y-11940841D01*
X10315420Y-11940841D02*
X10296372Y-11931317D01*
X10296372Y-11931317D02*
X10267801Y-11931317D01*
X10267801Y-11931317D02*
X10248753Y-11921794D01*
X10248753Y-11921794D02*
X10239229Y-11902746D01*
X10239229Y-11902746D02*
X10239229Y-11893222D01*
X10239229Y-11893222D02*
X10248753Y-11874175D01*
X10248753Y-11874175D02*
X10267801Y-11864651D01*
X10267801Y-11864651D02*
X10296372Y-11864651D01*
X10296372Y-11864651D02*
X10315420Y-11874175D01*
X10391610Y-12074175D02*
X10401134Y-12064651D01*
X10401134Y-12064651D02*
X10420182Y-12036079D01*
X10420182Y-12036079D02*
X10429706Y-12017032D01*
X10429706Y-12017032D02*
X10439229Y-11988460D01*
X10439229Y-11988460D02*
X10448753Y-11940841D01*
X10448753Y-11940841D02*
X10448753Y-11902746D01*
X10448753Y-11902746D02*
X10439229Y-11855127D01*
X10439229Y-11855127D02*
X10429706Y-11826556D01*
X10429706Y-11826556D02*
X10420182Y-11807508D01*
X10420182Y-11807508D02*
X10401134Y-11778936D01*
X10401134Y-11778936D02*
X10391610Y-11769413D01*
D12*
X3947500Y-12120500D02*
X3947500Y-12220500D01*
X3897500Y-12170500D02*
X3997500Y-12170500D01*
D11*
X4363038Y-12261984D02*
X4248753Y-12261984D01*
X4305895Y-12261984D02*
X4305895Y-12061984D01*
X4305895Y-12061984D02*
X4286848Y-12090556D01*
X4286848Y-12090556D02*
X4267800Y-12109603D01*
X4267800Y-12109603D02*
X4248753Y-12119127D01*
X4448753Y-12242936D02*
X4458276Y-12252460D01*
X4458276Y-12252460D02*
X4448753Y-12261984D01*
X4448753Y-12261984D02*
X4439229Y-12252460D01*
X4439229Y-12252460D02*
X4448753Y-12242936D01*
X4448753Y-12242936D02*
X4448753Y-12261984D01*
X4582086Y-12061984D02*
X4601134Y-12061984D01*
X4601134Y-12061984D02*
X4620181Y-12071508D01*
X4620181Y-12071508D02*
X4629705Y-12081032D01*
X4629705Y-12081032D02*
X4639229Y-12100079D01*
X4639229Y-12100079D02*
X4648753Y-12138175D01*
X4648753Y-12138175D02*
X4648753Y-12185794D01*
X4648753Y-12185794D02*
X4639229Y-12223889D01*
X4639229Y-12223889D02*
X4629705Y-12242936D01*
X4629705Y-12242936D02*
X4620181Y-12252460D01*
X4620181Y-12252460D02*
X4601134Y-12261984D01*
X4601134Y-12261984D02*
X4582086Y-12261984D01*
X4582086Y-12261984D02*
X4563038Y-12252460D01*
X4563038Y-12252460D02*
X4553515Y-12242936D01*
X4553515Y-12242936D02*
X4543991Y-12223889D01*
X4543991Y-12223889D02*
X4534467Y-12185794D01*
X4534467Y-12185794D02*
X4534467Y-12138175D01*
X4534467Y-12138175D02*
X4543991Y-12100079D01*
X4543991Y-12100079D02*
X4553515Y-12081032D01*
X4553515Y-12081032D02*
X4563038Y-12071508D01*
X4563038Y-12071508D02*
X4582086Y-12061984D01*
X4772562Y-12061984D02*
X4791610Y-12061984D01*
X4791610Y-12061984D02*
X4810657Y-12071508D01*
X4810657Y-12071508D02*
X4820181Y-12081032D01*
X4820181Y-12081032D02*
X4829705Y-12100079D01*
X4829705Y-12100079D02*
X4839229Y-12138175D01*
X4839229Y-12138175D02*
X4839229Y-12185794D01*
X4839229Y-12185794D02*
X4829705Y-12223889D01*
X4829705Y-12223889D02*
X4820181Y-12242936D01*
X4820181Y-12242936D02*
X4810657Y-12252460D01*
X4810657Y-12252460D02*
X4791610Y-12261984D01*
X4791610Y-12261984D02*
X4772562Y-12261984D01*
X4772562Y-12261984D02*
X4753515Y-12252460D01*
X4753515Y-12252460D02*
X4743991Y-12242936D01*
X4743991Y-12242936D02*
X4734467Y-12223889D01*
X4734467Y-12223889D02*
X4724943Y-12185794D01*
X4724943Y-12185794D02*
X4724943Y-12138175D01*
X4724943Y-12138175D02*
X4734467Y-12100079D01*
X4734467Y-12100079D02*
X4743991Y-12081032D01*
X4743991Y-12081032D02*
X4753515Y-12071508D01*
X4753515Y-12071508D02*
X4772562Y-12061984D01*
X4963038Y-12061984D02*
X4982086Y-12061984D01*
X4982086Y-12061984D02*
X5001134Y-12071508D01*
X5001134Y-12071508D02*
X5010657Y-12081032D01*
X5010657Y-12081032D02*
X5020181Y-12100079D01*
X5020181Y-12100079D02*
X5029705Y-12138175D01*
X5029705Y-12138175D02*
X5029705Y-12185794D01*
X5029705Y-12185794D02*
X5020181Y-12223889D01*
X5020181Y-12223889D02*
X5010657Y-12242936D01*
X5010657Y-12242936D02*
X5001134Y-12252460D01*
X5001134Y-12252460D02*
X4982086Y-12261984D01*
X4982086Y-12261984D02*
X4963038Y-12261984D01*
X4963038Y-12261984D02*
X4943991Y-12252460D01*
X4943991Y-12252460D02*
X4934467Y-12242936D01*
X4934467Y-12242936D02*
X4924943Y-12223889D01*
X4924943Y-12223889D02*
X4915419Y-12185794D01*
X4915419Y-12185794D02*
X4915419Y-12138175D01*
X4915419Y-12138175D02*
X4924943Y-12100079D01*
X4924943Y-12100079D02*
X4934467Y-12081032D01*
X4934467Y-12081032D02*
X4943991Y-12071508D01*
X4943991Y-12071508D02*
X4963038Y-12061984D01*
X5115419Y-12261984D02*
X5115419Y-12128651D01*
X5115419Y-12147698D02*
X5124943Y-12138175D01*
X5124943Y-12138175D02*
X5143991Y-12128651D01*
X5143991Y-12128651D02*
X5172562Y-12128651D01*
X5172562Y-12128651D02*
X5191610Y-12138175D01*
X5191610Y-12138175D02*
X5201134Y-12157222D01*
X5201134Y-12157222D02*
X5201134Y-12261984D01*
X5201134Y-12157222D02*
X5210657Y-12138175D01*
X5210657Y-12138175D02*
X5229705Y-12128651D01*
X5229705Y-12128651D02*
X5258276Y-12128651D01*
X5258276Y-12128651D02*
X5277324Y-12138175D01*
X5277324Y-12138175D02*
X5286848Y-12157222D01*
X5286848Y-12157222D02*
X5286848Y-12261984D01*
X5382086Y-12261984D02*
X5382086Y-12128651D01*
X5382086Y-12147698D02*
X5391610Y-12138175D01*
X5391610Y-12138175D02*
X5410657Y-12128651D01*
X5410657Y-12128651D02*
X5439229Y-12128651D01*
X5439229Y-12128651D02*
X5458277Y-12138175D01*
X5458277Y-12138175D02*
X5467800Y-12157222D01*
X5467800Y-12157222D02*
X5467800Y-12261984D01*
X5467800Y-12157222D02*
X5477324Y-12138175D01*
X5477324Y-12138175D02*
X5496372Y-12128651D01*
X5496372Y-12128651D02*
X5524943Y-12128651D01*
X5524943Y-12128651D02*
X5543991Y-12138175D01*
X5543991Y-12138175D02*
X5553515Y-12157222D01*
X5553515Y-12157222D02*
X5553515Y-12261984D01*
X5943991Y-12052460D02*
X5772562Y-12309603D01*
X6201134Y-12061984D02*
X6220181Y-12061984D01*
X6220181Y-12061984D02*
X6239229Y-12071508D01*
X6239229Y-12071508D02*
X6248753Y-12081032D01*
X6248753Y-12081032D02*
X6258277Y-12100079D01*
X6258277Y-12100079D02*
X6267800Y-12138175D01*
X6267800Y-12138175D02*
X6267800Y-12185794D01*
X6267800Y-12185794D02*
X6258277Y-12223889D01*
X6258277Y-12223889D02*
X6248753Y-12242936D01*
X6248753Y-12242936D02*
X6239229Y-12252460D01*
X6239229Y-12252460D02*
X6220181Y-12261984D01*
X6220181Y-12261984D02*
X6201134Y-12261984D01*
X6201134Y-12261984D02*
X6182086Y-12252460D01*
X6182086Y-12252460D02*
X6172562Y-12242936D01*
X6172562Y-12242936D02*
X6163038Y-12223889D01*
X6163038Y-12223889D02*
X6153515Y-12185794D01*
X6153515Y-12185794D02*
X6153515Y-12138175D01*
X6153515Y-12138175D02*
X6163038Y-12100079D01*
X6163038Y-12100079D02*
X6172562Y-12081032D01*
X6172562Y-12081032D02*
X6182086Y-12071508D01*
X6182086Y-12071508D02*
X6201134Y-12061984D01*
X6353515Y-12242936D02*
X6363038Y-12252460D01*
X6363038Y-12252460D02*
X6353515Y-12261984D01*
X6353515Y-12261984D02*
X6343991Y-12252460D01*
X6343991Y-12252460D02*
X6353515Y-12242936D01*
X6353515Y-12242936D02*
X6353515Y-12261984D01*
X6486848Y-12061984D02*
X6505896Y-12061984D01*
X6505896Y-12061984D02*
X6524943Y-12071508D01*
X6524943Y-12071508D02*
X6534467Y-12081032D01*
X6534467Y-12081032D02*
X6543991Y-12100079D01*
X6543991Y-12100079D02*
X6553515Y-12138175D01*
X6553515Y-12138175D02*
X6553515Y-12185794D01*
X6553515Y-12185794D02*
X6543991Y-12223889D01*
X6543991Y-12223889D02*
X6534467Y-12242936D01*
X6534467Y-12242936D02*
X6524943Y-12252460D01*
X6524943Y-12252460D02*
X6505896Y-12261984D01*
X6505896Y-12261984D02*
X6486848Y-12261984D01*
X6486848Y-12261984D02*
X6467800Y-12252460D01*
X6467800Y-12252460D02*
X6458277Y-12242936D01*
X6458277Y-12242936D02*
X6448753Y-12223889D01*
X6448753Y-12223889D02*
X6439229Y-12185794D01*
X6439229Y-12185794D02*
X6439229Y-12138175D01*
X6439229Y-12138175D02*
X6448753Y-12100079D01*
X6448753Y-12100079D02*
X6458277Y-12081032D01*
X6458277Y-12081032D02*
X6467800Y-12071508D01*
X6467800Y-12071508D02*
X6486848Y-12061984D01*
X6620181Y-12061984D02*
X6743991Y-12061984D01*
X6743991Y-12061984D02*
X6677324Y-12138175D01*
X6677324Y-12138175D02*
X6705896Y-12138175D01*
X6705896Y-12138175D02*
X6724943Y-12147698D01*
X6724943Y-12147698D02*
X6734467Y-12157222D01*
X6734467Y-12157222D02*
X6743991Y-12176270D01*
X6743991Y-12176270D02*
X6743991Y-12223889D01*
X6743991Y-12223889D02*
X6734467Y-12242936D01*
X6734467Y-12242936D02*
X6724943Y-12252460D01*
X6724943Y-12252460D02*
X6705896Y-12261984D01*
X6705896Y-12261984D02*
X6648753Y-12261984D01*
X6648753Y-12261984D02*
X6629705Y-12252460D01*
X6629705Y-12252460D02*
X6620181Y-12242936D01*
X6839229Y-12261984D02*
X6877324Y-12261984D01*
X6877324Y-12261984D02*
X6896372Y-12252460D01*
X6896372Y-12252460D02*
X6905896Y-12242936D01*
X6905896Y-12242936D02*
X6924943Y-12214365D01*
X6924943Y-12214365D02*
X6934467Y-12176270D01*
X6934467Y-12176270D02*
X6934467Y-12100079D01*
X6934467Y-12100079D02*
X6924943Y-12081032D01*
X6924943Y-12081032D02*
X6915419Y-12071508D01*
X6915419Y-12071508D02*
X6896372Y-12061984D01*
X6896372Y-12061984D02*
X6858277Y-12061984D01*
X6858277Y-12061984D02*
X6839229Y-12071508D01*
X6839229Y-12071508D02*
X6829705Y-12081032D01*
X6829705Y-12081032D02*
X6820181Y-12100079D01*
X6820181Y-12100079D02*
X6820181Y-12147698D01*
X6820181Y-12147698D02*
X6829705Y-12166746D01*
X6829705Y-12166746D02*
X6839229Y-12176270D01*
X6839229Y-12176270D02*
X6858277Y-12185794D01*
X6858277Y-12185794D02*
X6896372Y-12185794D01*
X6896372Y-12185794D02*
X6915419Y-12176270D01*
X6915419Y-12176270D02*
X6924943Y-12166746D01*
X6924943Y-12166746D02*
X6934467Y-12147698D01*
X7105896Y-12128651D02*
X7105896Y-12261984D01*
X7058277Y-12052460D02*
X7010658Y-12195317D01*
X7010658Y-12195317D02*
X7134467Y-12195317D01*
X7201134Y-12061984D02*
X7201134Y-12100079D01*
X7277324Y-12061984D02*
X7277324Y-12100079D01*
X7572562Y-12338175D02*
X7563039Y-12328651D01*
X7563039Y-12328651D02*
X7543991Y-12300079D01*
X7543991Y-12300079D02*
X7534467Y-12281032D01*
X7534467Y-12281032D02*
X7524943Y-12252460D01*
X7524943Y-12252460D02*
X7515420Y-12204841D01*
X7515420Y-12204841D02*
X7515420Y-12166746D01*
X7515420Y-12166746D02*
X7524943Y-12119127D01*
X7524943Y-12119127D02*
X7534467Y-12090556D01*
X7534467Y-12090556D02*
X7543991Y-12071508D01*
X7543991Y-12071508D02*
X7563039Y-12042936D01*
X7563039Y-12042936D02*
X7572562Y-12033413D01*
X7734467Y-12128651D02*
X7734467Y-12261984D01*
X7686848Y-12052460D02*
X7639229Y-12195317D01*
X7639229Y-12195317D02*
X7763039Y-12195317D01*
X7867800Y-12147698D02*
X7848753Y-12138175D01*
X7848753Y-12138175D02*
X7839229Y-12128651D01*
X7839229Y-12128651D02*
X7829705Y-12109603D01*
X7829705Y-12109603D02*
X7829705Y-12100079D01*
X7829705Y-12100079D02*
X7839229Y-12081032D01*
X7839229Y-12081032D02*
X7848753Y-12071508D01*
X7848753Y-12071508D02*
X7867800Y-12061984D01*
X7867800Y-12061984D02*
X7905896Y-12061984D01*
X7905896Y-12061984D02*
X7924943Y-12071508D01*
X7924943Y-12071508D02*
X7934467Y-12081032D01*
X7934467Y-12081032D02*
X7943991Y-12100079D01*
X7943991Y-12100079D02*
X7943991Y-12109603D01*
X7943991Y-12109603D02*
X7934467Y-12128651D01*
X7934467Y-12128651D02*
X7924943Y-12138175D01*
X7924943Y-12138175D02*
X7905896Y-12147698D01*
X7905896Y-12147698D02*
X7867800Y-12147698D01*
X7867800Y-12147698D02*
X7848753Y-12157222D01*
X7848753Y-12157222D02*
X7839229Y-12166746D01*
X7839229Y-12166746D02*
X7829705Y-12185794D01*
X7829705Y-12185794D02*
X7829705Y-12223889D01*
X7829705Y-12223889D02*
X7839229Y-12242936D01*
X7839229Y-12242936D02*
X7848753Y-12252460D01*
X7848753Y-12252460D02*
X7867800Y-12261984D01*
X7867800Y-12261984D02*
X7905896Y-12261984D01*
X7905896Y-12261984D02*
X7924943Y-12252460D01*
X7924943Y-12252460D02*
X7934467Y-12242936D01*
X7934467Y-12242936D02*
X7943991Y-12223889D01*
X7943991Y-12223889D02*
X7943991Y-12185794D01*
X7943991Y-12185794D02*
X7934467Y-12166746D01*
X7934467Y-12166746D02*
X7924943Y-12157222D01*
X7924943Y-12157222D02*
X7905896Y-12147698D01*
X8182086Y-12261984D02*
X8182086Y-12061984D01*
X8267801Y-12261984D02*
X8267801Y-12157222D01*
X8267801Y-12157222D02*
X8258277Y-12138175D01*
X8258277Y-12138175D02*
X8239229Y-12128651D01*
X8239229Y-12128651D02*
X8210658Y-12128651D01*
X8210658Y-12128651D02*
X8191610Y-12138175D01*
X8191610Y-12138175D02*
X8182086Y-12147698D01*
X8391610Y-12261984D02*
X8372562Y-12252460D01*
X8372562Y-12252460D02*
X8363039Y-12242936D01*
X8363039Y-12242936D02*
X8353515Y-12223889D01*
X8353515Y-12223889D02*
X8353515Y-12166746D01*
X8353515Y-12166746D02*
X8363039Y-12147698D01*
X8363039Y-12147698D02*
X8372562Y-12138175D01*
X8372562Y-12138175D02*
X8391610Y-12128651D01*
X8391610Y-12128651D02*
X8420182Y-12128651D01*
X8420182Y-12128651D02*
X8439229Y-12138175D01*
X8439229Y-12138175D02*
X8448753Y-12147698D01*
X8448753Y-12147698D02*
X8458277Y-12166746D01*
X8458277Y-12166746D02*
X8458277Y-12223889D01*
X8458277Y-12223889D02*
X8448753Y-12242936D01*
X8448753Y-12242936D02*
X8439229Y-12252460D01*
X8439229Y-12252460D02*
X8420182Y-12261984D01*
X8420182Y-12261984D02*
X8391610Y-12261984D01*
X8572563Y-12261984D02*
X8553515Y-12252460D01*
X8553515Y-12252460D02*
X8543991Y-12233413D01*
X8543991Y-12233413D02*
X8543991Y-12061984D01*
X8724944Y-12252460D02*
X8705896Y-12261984D01*
X8705896Y-12261984D02*
X8667801Y-12261984D01*
X8667801Y-12261984D02*
X8648753Y-12252460D01*
X8648753Y-12252460D02*
X8639229Y-12233413D01*
X8639229Y-12233413D02*
X8639229Y-12157222D01*
X8639229Y-12157222D02*
X8648753Y-12138175D01*
X8648753Y-12138175D02*
X8667801Y-12128651D01*
X8667801Y-12128651D02*
X8705896Y-12128651D01*
X8705896Y-12128651D02*
X8724944Y-12138175D01*
X8724944Y-12138175D02*
X8734467Y-12157222D01*
X8734467Y-12157222D02*
X8734467Y-12176270D01*
X8734467Y-12176270D02*
X8639229Y-12195317D01*
X8810658Y-12252460D02*
X8829705Y-12261984D01*
X8829705Y-12261984D02*
X8867801Y-12261984D01*
X8867801Y-12261984D02*
X8886848Y-12252460D01*
X8886848Y-12252460D02*
X8896372Y-12233413D01*
X8896372Y-12233413D02*
X8896372Y-12223889D01*
X8896372Y-12223889D02*
X8886848Y-12204841D01*
X8886848Y-12204841D02*
X8867801Y-12195317D01*
X8867801Y-12195317D02*
X8839229Y-12195317D01*
X8839229Y-12195317D02*
X8820182Y-12185794D01*
X8820182Y-12185794D02*
X8810658Y-12166746D01*
X8810658Y-12166746D02*
X8810658Y-12157222D01*
X8810658Y-12157222D02*
X8820182Y-12138175D01*
X8820182Y-12138175D02*
X8839229Y-12128651D01*
X8839229Y-12128651D02*
X8867801Y-12128651D01*
X8867801Y-12128651D02*
X8886848Y-12138175D01*
X8963039Y-12338175D02*
X8972563Y-12328651D01*
X8972563Y-12328651D02*
X8991610Y-12300079D01*
X8991610Y-12300079D02*
X9001134Y-12281032D01*
X9001134Y-12281032D02*
X9010658Y-12252460D01*
X9010658Y-12252460D02*
X9020182Y-12204841D01*
X9020182Y-12204841D02*
X9020182Y-12166746D01*
X9020182Y-12166746D02*
X9010658Y-12119127D01*
X9010658Y-12119127D02*
X9001134Y-12090556D01*
X9001134Y-12090556D02*
X8991610Y-12071508D01*
X8991610Y-12071508D02*
X8972563Y-12042936D01*
X8972563Y-12042936D02*
X8963039Y-12033413D01*
D12*
X3987981Y-12457482D02*
X3987981Y-12411519D01*
X3942018Y-12411519D01*
X3942018Y-12457482D01*
X3987981Y-12457482D01*
D11*
X4296372Y-12325984D02*
X4315419Y-12325984D01*
X4315419Y-12325984D02*
X4334467Y-12335508D01*
X4334467Y-12335508D02*
X4343991Y-12345032D01*
X4343991Y-12345032D02*
X4353515Y-12364079D01*
X4353515Y-12364079D02*
X4363038Y-12402175D01*
X4363038Y-12402175D02*
X4363038Y-12449794D01*
X4363038Y-12449794D02*
X4353515Y-12487889D01*
X4353515Y-12487889D02*
X4343991Y-12506936D01*
X4343991Y-12506936D02*
X4334467Y-12516460D01*
X4334467Y-12516460D02*
X4315419Y-12525984D01*
X4315419Y-12525984D02*
X4296372Y-12525984D01*
X4296372Y-12525984D02*
X4277324Y-12516460D01*
X4277324Y-12516460D02*
X4267800Y-12506936D01*
X4267800Y-12506936D02*
X4258276Y-12487889D01*
X4258276Y-12487889D02*
X4248753Y-12449794D01*
X4248753Y-12449794D02*
X4248753Y-12402175D01*
X4248753Y-12402175D02*
X4258276Y-12364079D01*
X4258276Y-12364079D02*
X4267800Y-12345032D01*
X4267800Y-12345032D02*
X4277324Y-12335508D01*
X4277324Y-12335508D02*
X4296372Y-12325984D01*
X4448753Y-12506936D02*
X4458276Y-12516460D01*
X4458276Y-12516460D02*
X4448753Y-12525984D01*
X4448753Y-12525984D02*
X4439229Y-12516460D01*
X4439229Y-12516460D02*
X4448753Y-12506936D01*
X4448753Y-12506936D02*
X4448753Y-12525984D01*
X4629705Y-12325984D02*
X4591610Y-12325984D01*
X4591610Y-12325984D02*
X4572562Y-12335508D01*
X4572562Y-12335508D02*
X4563038Y-12345032D01*
X4563038Y-12345032D02*
X4543991Y-12373603D01*
X4543991Y-12373603D02*
X4534467Y-12411698D01*
X4534467Y-12411698D02*
X4534467Y-12487889D01*
X4534467Y-12487889D02*
X4543991Y-12506936D01*
X4543991Y-12506936D02*
X4553515Y-12516460D01*
X4553515Y-12516460D02*
X4572562Y-12525984D01*
X4572562Y-12525984D02*
X4610657Y-12525984D01*
X4610657Y-12525984D02*
X4629705Y-12516460D01*
X4629705Y-12516460D02*
X4639229Y-12506936D01*
X4639229Y-12506936D02*
X4648753Y-12487889D01*
X4648753Y-12487889D02*
X4648753Y-12440270D01*
X4648753Y-12440270D02*
X4639229Y-12421222D01*
X4639229Y-12421222D02*
X4629705Y-12411698D01*
X4629705Y-12411698D02*
X4610657Y-12402175D01*
X4610657Y-12402175D02*
X4572562Y-12402175D01*
X4572562Y-12402175D02*
X4553515Y-12411698D01*
X4553515Y-12411698D02*
X4543991Y-12421222D01*
X4543991Y-12421222D02*
X4534467Y-12440270D01*
X4829705Y-12325984D02*
X4734467Y-12325984D01*
X4734467Y-12325984D02*
X4724943Y-12421222D01*
X4724943Y-12421222D02*
X4734467Y-12411698D01*
X4734467Y-12411698D02*
X4753515Y-12402175D01*
X4753515Y-12402175D02*
X4801134Y-12402175D01*
X4801134Y-12402175D02*
X4820181Y-12411698D01*
X4820181Y-12411698D02*
X4829705Y-12421222D01*
X4829705Y-12421222D02*
X4839229Y-12440270D01*
X4839229Y-12440270D02*
X4839229Y-12487889D01*
X4839229Y-12487889D02*
X4829705Y-12506936D01*
X4829705Y-12506936D02*
X4820181Y-12516460D01*
X4820181Y-12516460D02*
X4801134Y-12525984D01*
X4801134Y-12525984D02*
X4753515Y-12525984D01*
X4753515Y-12525984D02*
X4734467Y-12516460D01*
X4734467Y-12516460D02*
X4724943Y-12506936D01*
X4963038Y-12325984D02*
X4982086Y-12325984D01*
X4982086Y-12325984D02*
X5001134Y-12335508D01*
X5001134Y-12335508D02*
X5010657Y-12345032D01*
X5010657Y-12345032D02*
X5020181Y-12364079D01*
X5020181Y-12364079D02*
X5029705Y-12402175D01*
X5029705Y-12402175D02*
X5029705Y-12449794D01*
X5029705Y-12449794D02*
X5020181Y-12487889D01*
X5020181Y-12487889D02*
X5010657Y-12506936D01*
X5010657Y-12506936D02*
X5001134Y-12516460D01*
X5001134Y-12516460D02*
X4982086Y-12525984D01*
X4982086Y-12525984D02*
X4963038Y-12525984D01*
X4963038Y-12525984D02*
X4943991Y-12516460D01*
X4943991Y-12516460D02*
X4934467Y-12506936D01*
X4934467Y-12506936D02*
X4924943Y-12487889D01*
X4924943Y-12487889D02*
X4915419Y-12449794D01*
X4915419Y-12449794D02*
X4915419Y-12402175D01*
X4915419Y-12402175D02*
X4924943Y-12364079D01*
X4924943Y-12364079D02*
X4934467Y-12345032D01*
X4934467Y-12345032D02*
X4943991Y-12335508D01*
X4943991Y-12335508D02*
X4963038Y-12325984D01*
X5115419Y-12525984D02*
X5115419Y-12392651D01*
X5115419Y-12411698D02*
X5124943Y-12402175D01*
X5124943Y-12402175D02*
X5143991Y-12392651D01*
X5143991Y-12392651D02*
X5172562Y-12392651D01*
X5172562Y-12392651D02*
X5191610Y-12402175D01*
X5191610Y-12402175D02*
X5201134Y-12421222D01*
X5201134Y-12421222D02*
X5201134Y-12525984D01*
X5201134Y-12421222D02*
X5210657Y-12402175D01*
X5210657Y-12402175D02*
X5229705Y-12392651D01*
X5229705Y-12392651D02*
X5258276Y-12392651D01*
X5258276Y-12392651D02*
X5277324Y-12402175D01*
X5277324Y-12402175D02*
X5286848Y-12421222D01*
X5286848Y-12421222D02*
X5286848Y-12525984D01*
X5382086Y-12525984D02*
X5382086Y-12392651D01*
X5382086Y-12411698D02*
X5391610Y-12402175D01*
X5391610Y-12402175D02*
X5410657Y-12392651D01*
X5410657Y-12392651D02*
X5439229Y-12392651D01*
X5439229Y-12392651D02*
X5458277Y-12402175D01*
X5458277Y-12402175D02*
X5467800Y-12421222D01*
X5467800Y-12421222D02*
X5467800Y-12525984D01*
X5467800Y-12421222D02*
X5477324Y-12402175D01*
X5477324Y-12402175D02*
X5496372Y-12392651D01*
X5496372Y-12392651D02*
X5524943Y-12392651D01*
X5524943Y-12392651D02*
X5543991Y-12402175D01*
X5543991Y-12402175D02*
X5553515Y-12421222D01*
X5553515Y-12421222D02*
X5553515Y-12525984D01*
X5943991Y-12316460D02*
X5772562Y-12573603D01*
X6201134Y-12325984D02*
X6220181Y-12325984D01*
X6220181Y-12325984D02*
X6239229Y-12335508D01*
X6239229Y-12335508D02*
X6248753Y-12345032D01*
X6248753Y-12345032D02*
X6258277Y-12364079D01*
X6258277Y-12364079D02*
X6267800Y-12402175D01*
X6267800Y-12402175D02*
X6267800Y-12449794D01*
X6267800Y-12449794D02*
X6258277Y-12487889D01*
X6258277Y-12487889D02*
X6248753Y-12506936D01*
X6248753Y-12506936D02*
X6239229Y-12516460D01*
X6239229Y-12516460D02*
X6220181Y-12525984D01*
X6220181Y-12525984D02*
X6201134Y-12525984D01*
X6201134Y-12525984D02*
X6182086Y-12516460D01*
X6182086Y-12516460D02*
X6172562Y-12506936D01*
X6172562Y-12506936D02*
X6163038Y-12487889D01*
X6163038Y-12487889D02*
X6153515Y-12449794D01*
X6153515Y-12449794D02*
X6153515Y-12402175D01*
X6153515Y-12402175D02*
X6163038Y-12364079D01*
X6163038Y-12364079D02*
X6172562Y-12345032D01*
X6172562Y-12345032D02*
X6182086Y-12335508D01*
X6182086Y-12335508D02*
X6201134Y-12325984D01*
X6353515Y-12506936D02*
X6363038Y-12516460D01*
X6363038Y-12516460D02*
X6353515Y-12525984D01*
X6353515Y-12525984D02*
X6343991Y-12516460D01*
X6343991Y-12516460D02*
X6353515Y-12506936D01*
X6353515Y-12506936D02*
X6353515Y-12525984D01*
X6486848Y-12325984D02*
X6505896Y-12325984D01*
X6505896Y-12325984D02*
X6524943Y-12335508D01*
X6524943Y-12335508D02*
X6534467Y-12345032D01*
X6534467Y-12345032D02*
X6543991Y-12364079D01*
X6543991Y-12364079D02*
X6553515Y-12402175D01*
X6553515Y-12402175D02*
X6553515Y-12449794D01*
X6553515Y-12449794D02*
X6543991Y-12487889D01*
X6543991Y-12487889D02*
X6534467Y-12506936D01*
X6534467Y-12506936D02*
X6524943Y-12516460D01*
X6524943Y-12516460D02*
X6505896Y-12525984D01*
X6505896Y-12525984D02*
X6486848Y-12525984D01*
X6486848Y-12525984D02*
X6467800Y-12516460D01*
X6467800Y-12516460D02*
X6458277Y-12506936D01*
X6458277Y-12506936D02*
X6448753Y-12487889D01*
X6448753Y-12487889D02*
X6439229Y-12449794D01*
X6439229Y-12449794D02*
X6439229Y-12402175D01*
X6439229Y-12402175D02*
X6448753Y-12364079D01*
X6448753Y-12364079D02*
X6458277Y-12345032D01*
X6458277Y-12345032D02*
X6467800Y-12335508D01*
X6467800Y-12335508D02*
X6486848Y-12325984D01*
X6629705Y-12345032D02*
X6639229Y-12335508D01*
X6639229Y-12335508D02*
X6658277Y-12325984D01*
X6658277Y-12325984D02*
X6705896Y-12325984D01*
X6705896Y-12325984D02*
X6724943Y-12335508D01*
X6724943Y-12335508D02*
X6734467Y-12345032D01*
X6734467Y-12345032D02*
X6743991Y-12364079D01*
X6743991Y-12364079D02*
X6743991Y-12383127D01*
X6743991Y-12383127D02*
X6734467Y-12411698D01*
X6734467Y-12411698D02*
X6620181Y-12525984D01*
X6620181Y-12525984D02*
X6743991Y-12525984D01*
X6924943Y-12325984D02*
X6829705Y-12325984D01*
X6829705Y-12325984D02*
X6820181Y-12421222D01*
X6820181Y-12421222D02*
X6829705Y-12411698D01*
X6829705Y-12411698D02*
X6848753Y-12402175D01*
X6848753Y-12402175D02*
X6896372Y-12402175D01*
X6896372Y-12402175D02*
X6915419Y-12411698D01*
X6915419Y-12411698D02*
X6924943Y-12421222D01*
X6924943Y-12421222D02*
X6934467Y-12440270D01*
X6934467Y-12440270D02*
X6934467Y-12487889D01*
X6934467Y-12487889D02*
X6924943Y-12506936D01*
X6924943Y-12506936D02*
X6915419Y-12516460D01*
X6915419Y-12516460D02*
X6896372Y-12525984D01*
X6896372Y-12525984D02*
X6848753Y-12525984D01*
X6848753Y-12525984D02*
X6829705Y-12516460D01*
X6829705Y-12516460D02*
X6820181Y-12506936D01*
X7105896Y-12325984D02*
X7067800Y-12325984D01*
X7067800Y-12325984D02*
X7048753Y-12335508D01*
X7048753Y-12335508D02*
X7039229Y-12345032D01*
X7039229Y-12345032D02*
X7020181Y-12373603D01*
X7020181Y-12373603D02*
X7010658Y-12411698D01*
X7010658Y-12411698D02*
X7010658Y-12487889D01*
X7010658Y-12487889D02*
X7020181Y-12506936D01*
X7020181Y-12506936D02*
X7029705Y-12516460D01*
X7029705Y-12516460D02*
X7048753Y-12525984D01*
X7048753Y-12525984D02*
X7086848Y-12525984D01*
X7086848Y-12525984D02*
X7105896Y-12516460D01*
X7105896Y-12516460D02*
X7115419Y-12506936D01*
X7115419Y-12506936D02*
X7124943Y-12487889D01*
X7124943Y-12487889D02*
X7124943Y-12440270D01*
X7124943Y-12440270D02*
X7115419Y-12421222D01*
X7115419Y-12421222D02*
X7105896Y-12411698D01*
X7105896Y-12411698D02*
X7086848Y-12402175D01*
X7086848Y-12402175D02*
X7048753Y-12402175D01*
X7048753Y-12402175D02*
X7029705Y-12411698D01*
X7029705Y-12411698D02*
X7020181Y-12421222D01*
X7020181Y-12421222D02*
X7010658Y-12440270D01*
X7201134Y-12325984D02*
X7201134Y-12364079D01*
X7277324Y-12325984D02*
X7277324Y-12364079D01*
X7572562Y-12602175D02*
X7563039Y-12592651D01*
X7563039Y-12592651D02*
X7543991Y-12564079D01*
X7543991Y-12564079D02*
X7534467Y-12545032D01*
X7534467Y-12545032D02*
X7524943Y-12516460D01*
X7524943Y-12516460D02*
X7515420Y-12468841D01*
X7515420Y-12468841D02*
X7515420Y-12430746D01*
X7515420Y-12430746D02*
X7524943Y-12383127D01*
X7524943Y-12383127D02*
X7534467Y-12354556D01*
X7534467Y-12354556D02*
X7543991Y-12335508D01*
X7543991Y-12335508D02*
X7563039Y-12306936D01*
X7563039Y-12306936D02*
X7572562Y-12297413D01*
X7639229Y-12345032D02*
X7648753Y-12335508D01*
X7648753Y-12335508D02*
X7667800Y-12325984D01*
X7667800Y-12325984D02*
X7715420Y-12325984D01*
X7715420Y-12325984D02*
X7734467Y-12335508D01*
X7734467Y-12335508D02*
X7743991Y-12345032D01*
X7743991Y-12345032D02*
X7753515Y-12364079D01*
X7753515Y-12364079D02*
X7753515Y-12383127D01*
X7753515Y-12383127D02*
X7743991Y-12411698D01*
X7743991Y-12411698D02*
X7629705Y-12525984D01*
X7629705Y-12525984D02*
X7753515Y-12525984D01*
X7991610Y-12525984D02*
X7991610Y-12325984D01*
X8077324Y-12525984D02*
X8077324Y-12421222D01*
X8077324Y-12421222D02*
X8067801Y-12402175D01*
X8067801Y-12402175D02*
X8048753Y-12392651D01*
X8048753Y-12392651D02*
X8020181Y-12392651D01*
X8020181Y-12392651D02*
X8001134Y-12402175D01*
X8001134Y-12402175D02*
X7991610Y-12411698D01*
X8201134Y-12525984D02*
X8182086Y-12516460D01*
X8182086Y-12516460D02*
X8172562Y-12506936D01*
X8172562Y-12506936D02*
X8163039Y-12487889D01*
X8163039Y-12487889D02*
X8163039Y-12430746D01*
X8163039Y-12430746D02*
X8172562Y-12411698D01*
X8172562Y-12411698D02*
X8182086Y-12402175D01*
X8182086Y-12402175D02*
X8201134Y-12392651D01*
X8201134Y-12392651D02*
X8229705Y-12392651D01*
X8229705Y-12392651D02*
X8248753Y-12402175D01*
X8248753Y-12402175D02*
X8258277Y-12411698D01*
X8258277Y-12411698D02*
X8267801Y-12430746D01*
X8267801Y-12430746D02*
X8267801Y-12487889D01*
X8267801Y-12487889D02*
X8258277Y-12506936D01*
X8258277Y-12506936D02*
X8248753Y-12516460D01*
X8248753Y-12516460D02*
X8229705Y-12525984D01*
X8229705Y-12525984D02*
X8201134Y-12525984D01*
X8382086Y-12525984D02*
X8363039Y-12516460D01*
X8363039Y-12516460D02*
X8353515Y-12497413D01*
X8353515Y-12497413D02*
X8353515Y-12325984D01*
X8534467Y-12516460D02*
X8515420Y-12525984D01*
X8515420Y-12525984D02*
X8477324Y-12525984D01*
X8477324Y-12525984D02*
X8458277Y-12516460D01*
X8458277Y-12516460D02*
X8448753Y-12497413D01*
X8448753Y-12497413D02*
X8448753Y-12421222D01*
X8448753Y-12421222D02*
X8458277Y-12402175D01*
X8458277Y-12402175D02*
X8477324Y-12392651D01*
X8477324Y-12392651D02*
X8515420Y-12392651D01*
X8515420Y-12392651D02*
X8534467Y-12402175D01*
X8534467Y-12402175D02*
X8543991Y-12421222D01*
X8543991Y-12421222D02*
X8543991Y-12440270D01*
X8543991Y-12440270D02*
X8448753Y-12459317D01*
X8620182Y-12516460D02*
X8639229Y-12525984D01*
X8639229Y-12525984D02*
X8677324Y-12525984D01*
X8677324Y-12525984D02*
X8696372Y-12516460D01*
X8696372Y-12516460D02*
X8705896Y-12497413D01*
X8705896Y-12497413D02*
X8705896Y-12487889D01*
X8705896Y-12487889D02*
X8696372Y-12468841D01*
X8696372Y-12468841D02*
X8677324Y-12459317D01*
X8677324Y-12459317D02*
X8648753Y-12459317D01*
X8648753Y-12459317D02*
X8629705Y-12449794D01*
X8629705Y-12449794D02*
X8620182Y-12430746D01*
X8620182Y-12430746D02*
X8620182Y-12421222D01*
X8620182Y-12421222D02*
X8629705Y-12402175D01*
X8629705Y-12402175D02*
X8648753Y-12392651D01*
X8648753Y-12392651D02*
X8677324Y-12392651D01*
X8677324Y-12392651D02*
X8696372Y-12402175D01*
X8772563Y-12602175D02*
X8782086Y-12592651D01*
X8782086Y-12592651D02*
X8801134Y-12564079D01*
X8801134Y-12564079D02*
X8810658Y-12545032D01*
X8810658Y-12545032D02*
X8820182Y-12516460D01*
X8820182Y-12516460D02*
X8829705Y-12468841D01*
X8829705Y-12468841D02*
X8829705Y-12430746D01*
X8829705Y-12430746D02*
X8820182Y-12383127D01*
X8820182Y-12383127D02*
X8810658Y-12354556D01*
X8810658Y-12354556D02*
X8801134Y-12335508D01*
X8801134Y-12335508D02*
X8782086Y-12306936D01*
X8782086Y-12306936D02*
X8772563Y-12297413D01*
X9134467Y-12602175D02*
X9124944Y-12592651D01*
X9124944Y-12592651D02*
X9105896Y-12564079D01*
X9105896Y-12564079D02*
X9096372Y-12545032D01*
X9096372Y-12545032D02*
X9086848Y-12516460D01*
X9086848Y-12516460D02*
X9077325Y-12468841D01*
X9077325Y-12468841D02*
X9077325Y-12430746D01*
X9077325Y-12430746D02*
X9086848Y-12383127D01*
X9086848Y-12383127D02*
X9096372Y-12354556D01*
X9096372Y-12354556D02*
X9105896Y-12335508D01*
X9105896Y-12335508D02*
X9124944Y-12306936D01*
X9124944Y-12306936D02*
X9134467Y-12297413D01*
X9210658Y-12392651D02*
X9210658Y-12525984D01*
X9210658Y-12411698D02*
X9220182Y-12402175D01*
X9220182Y-12402175D02*
X9239229Y-12392651D01*
X9239229Y-12392651D02*
X9267801Y-12392651D01*
X9267801Y-12392651D02*
X9286848Y-12402175D01*
X9286848Y-12402175D02*
X9296372Y-12421222D01*
X9296372Y-12421222D02*
X9296372Y-12525984D01*
X9420182Y-12525984D02*
X9401134Y-12516460D01*
X9401134Y-12516460D02*
X9391610Y-12506936D01*
X9391610Y-12506936D02*
X9382086Y-12487889D01*
X9382086Y-12487889D02*
X9382086Y-12430746D01*
X9382086Y-12430746D02*
X9391610Y-12411698D01*
X9391610Y-12411698D02*
X9401134Y-12402175D01*
X9401134Y-12402175D02*
X9420182Y-12392651D01*
X9420182Y-12392651D02*
X9448753Y-12392651D01*
X9448753Y-12392651D02*
X9467801Y-12402175D01*
X9467801Y-12402175D02*
X9477325Y-12411698D01*
X9477325Y-12411698D02*
X9486848Y-12430746D01*
X9486848Y-12430746D02*
X9486848Y-12487889D01*
X9486848Y-12487889D02*
X9477325Y-12506936D01*
X9477325Y-12506936D02*
X9467801Y-12516460D01*
X9467801Y-12516460D02*
X9448753Y-12525984D01*
X9448753Y-12525984D02*
X9420182Y-12525984D01*
X9543991Y-12392651D02*
X9620182Y-12392651D01*
X9572563Y-12325984D02*
X9572563Y-12497413D01*
X9572563Y-12497413D02*
X9582086Y-12516460D01*
X9582086Y-12516460D02*
X9601134Y-12525984D01*
X9601134Y-12525984D02*
X9620182Y-12525984D01*
X9839229Y-12392651D02*
X9839229Y-12592651D01*
X9839229Y-12402175D02*
X9858277Y-12392651D01*
X9858277Y-12392651D02*
X9896372Y-12392651D01*
X9896372Y-12392651D02*
X9915420Y-12402175D01*
X9915420Y-12402175D02*
X9924944Y-12411698D01*
X9924944Y-12411698D02*
X9934467Y-12430746D01*
X9934467Y-12430746D02*
X9934467Y-12487889D01*
X9934467Y-12487889D02*
X9924944Y-12506936D01*
X9924944Y-12506936D02*
X9915420Y-12516460D01*
X9915420Y-12516460D02*
X9896372Y-12525984D01*
X9896372Y-12525984D02*
X9858277Y-12525984D01*
X9858277Y-12525984D02*
X9839229Y-12516460D01*
X10048753Y-12525984D02*
X10029706Y-12516460D01*
X10029706Y-12516460D02*
X10020182Y-12497413D01*
X10020182Y-12497413D02*
X10020182Y-12325984D01*
X10210658Y-12525984D02*
X10210658Y-12421222D01*
X10210658Y-12421222D02*
X10201134Y-12402175D01*
X10201134Y-12402175D02*
X10182087Y-12392651D01*
X10182087Y-12392651D02*
X10143991Y-12392651D01*
X10143991Y-12392651D02*
X10124944Y-12402175D01*
X10210658Y-12516460D02*
X10191610Y-12525984D01*
X10191610Y-12525984D02*
X10143991Y-12525984D01*
X10143991Y-12525984D02*
X10124944Y-12516460D01*
X10124944Y-12516460D02*
X10115420Y-12497413D01*
X10115420Y-12497413D02*
X10115420Y-12478365D01*
X10115420Y-12478365D02*
X10124944Y-12459317D01*
X10124944Y-12459317D02*
X10143991Y-12449794D01*
X10143991Y-12449794D02*
X10191610Y-12449794D01*
X10191610Y-12449794D02*
X10210658Y-12440270D01*
X10277325Y-12392651D02*
X10353515Y-12392651D01*
X10305896Y-12325984D02*
X10305896Y-12497413D01*
X10305896Y-12497413D02*
X10315420Y-12516460D01*
X10315420Y-12516460D02*
X10334467Y-12525984D01*
X10334467Y-12525984D02*
X10353515Y-12525984D01*
X10496372Y-12516460D02*
X10477325Y-12525984D01*
X10477325Y-12525984D02*
X10439229Y-12525984D01*
X10439229Y-12525984D02*
X10420182Y-12516460D01*
X10420182Y-12516460D02*
X10410658Y-12497413D01*
X10410658Y-12497413D02*
X10410658Y-12421222D01*
X10410658Y-12421222D02*
X10420182Y-12402175D01*
X10420182Y-12402175D02*
X10439229Y-12392651D01*
X10439229Y-12392651D02*
X10477325Y-12392651D01*
X10477325Y-12392651D02*
X10496372Y-12402175D01*
X10496372Y-12402175D02*
X10505896Y-12421222D01*
X10505896Y-12421222D02*
X10505896Y-12440270D01*
X10505896Y-12440270D02*
X10410658Y-12459317D01*
X10677325Y-12525984D02*
X10677325Y-12325984D01*
X10677325Y-12516460D02*
X10658277Y-12525984D01*
X10658277Y-12525984D02*
X10620182Y-12525984D01*
X10620182Y-12525984D02*
X10601134Y-12516460D01*
X10601134Y-12516460D02*
X10591610Y-12506936D01*
X10591610Y-12506936D02*
X10582087Y-12487889D01*
X10582087Y-12487889D02*
X10582087Y-12430746D01*
X10582087Y-12430746D02*
X10591610Y-12411698D01*
X10591610Y-12411698D02*
X10601134Y-12402175D01*
X10601134Y-12402175D02*
X10620182Y-12392651D01*
X10620182Y-12392651D02*
X10658277Y-12392651D01*
X10658277Y-12392651D02*
X10677325Y-12402175D01*
X10753515Y-12602175D02*
X10763039Y-12592651D01*
X10763039Y-12592651D02*
X10782087Y-12564079D01*
X10782087Y-12564079D02*
X10791610Y-12545032D01*
X10791610Y-12545032D02*
X10801134Y-12516460D01*
X10801134Y-12516460D02*
X10810658Y-12468841D01*
X10810658Y-12468841D02*
X10810658Y-12430746D01*
X10810658Y-12430746D02*
X10801134Y-12383127D01*
X10801134Y-12383127D02*
X10791610Y-12354556D01*
X10791610Y-12354556D02*
X10782087Y-12335508D01*
X10782087Y-12335508D02*
X10763039Y-12306936D01*
X10763039Y-12306936D02*
X10753515Y-12297413D01*
D12*
X3960000Y-12736000D02*
X3997500Y-12698500D01*
X3960000Y-12661000D01*
X3922500Y-12698500D01*
X3960000Y-12736000D01*
D11*
X4296372Y-12589984D02*
X4315419Y-12589984D01*
X4315419Y-12589984D02*
X4334467Y-12599508D01*
X4334467Y-12599508D02*
X4343991Y-12609032D01*
X4343991Y-12609032D02*
X4353515Y-12628079D01*
X4353515Y-12628079D02*
X4363038Y-12666175D01*
X4363038Y-12666175D02*
X4363038Y-12713794D01*
X4363038Y-12713794D02*
X4353515Y-12751889D01*
X4353515Y-12751889D02*
X4343991Y-12770936D01*
X4343991Y-12770936D02*
X4334467Y-12780460D01*
X4334467Y-12780460D02*
X4315419Y-12789984D01*
X4315419Y-12789984D02*
X4296372Y-12789984D01*
X4296372Y-12789984D02*
X4277324Y-12780460D01*
X4277324Y-12780460D02*
X4267800Y-12770936D01*
X4267800Y-12770936D02*
X4258276Y-12751889D01*
X4258276Y-12751889D02*
X4248753Y-12713794D01*
X4248753Y-12713794D02*
X4248753Y-12666175D01*
X4248753Y-12666175D02*
X4258276Y-12628079D01*
X4258276Y-12628079D02*
X4267800Y-12609032D01*
X4267800Y-12609032D02*
X4277324Y-12599508D01*
X4277324Y-12599508D02*
X4296372Y-12589984D01*
X4448753Y-12770936D02*
X4458276Y-12780460D01*
X4458276Y-12780460D02*
X4448753Y-12789984D01*
X4448753Y-12789984D02*
X4439229Y-12780460D01*
X4439229Y-12780460D02*
X4448753Y-12770936D01*
X4448753Y-12770936D02*
X4448753Y-12789984D01*
X4524943Y-12589984D02*
X4658276Y-12589984D01*
X4658276Y-12589984D02*
X4572562Y-12789984D01*
X4829705Y-12589984D02*
X4734467Y-12589984D01*
X4734467Y-12589984D02*
X4724943Y-12685222D01*
X4724943Y-12685222D02*
X4734467Y-12675698D01*
X4734467Y-12675698D02*
X4753515Y-12666175D01*
X4753515Y-12666175D02*
X4801134Y-12666175D01*
X4801134Y-12666175D02*
X4820181Y-12675698D01*
X4820181Y-12675698D02*
X4829705Y-12685222D01*
X4829705Y-12685222D02*
X4839229Y-12704270D01*
X4839229Y-12704270D02*
X4839229Y-12751889D01*
X4839229Y-12751889D02*
X4829705Y-12770936D01*
X4829705Y-12770936D02*
X4820181Y-12780460D01*
X4820181Y-12780460D02*
X4801134Y-12789984D01*
X4801134Y-12789984D02*
X4753515Y-12789984D01*
X4753515Y-12789984D02*
X4734467Y-12780460D01*
X4734467Y-12780460D02*
X4724943Y-12770936D01*
X4963038Y-12589984D02*
X4982086Y-12589984D01*
X4982086Y-12589984D02*
X5001134Y-12599508D01*
X5001134Y-12599508D02*
X5010657Y-12609032D01*
X5010657Y-12609032D02*
X5020181Y-12628079D01*
X5020181Y-12628079D02*
X5029705Y-12666175D01*
X5029705Y-12666175D02*
X5029705Y-12713794D01*
X5029705Y-12713794D02*
X5020181Y-12751889D01*
X5020181Y-12751889D02*
X5010657Y-12770936D01*
X5010657Y-12770936D02*
X5001134Y-12780460D01*
X5001134Y-12780460D02*
X4982086Y-12789984D01*
X4982086Y-12789984D02*
X4963038Y-12789984D01*
X4963038Y-12789984D02*
X4943991Y-12780460D01*
X4943991Y-12780460D02*
X4934467Y-12770936D01*
X4934467Y-12770936D02*
X4924943Y-12751889D01*
X4924943Y-12751889D02*
X4915419Y-12713794D01*
X4915419Y-12713794D02*
X4915419Y-12666175D01*
X4915419Y-12666175D02*
X4924943Y-12628079D01*
X4924943Y-12628079D02*
X4934467Y-12609032D01*
X4934467Y-12609032D02*
X4943991Y-12599508D01*
X4943991Y-12599508D02*
X4963038Y-12589984D01*
X5115419Y-12789984D02*
X5115419Y-12656651D01*
X5115419Y-12675698D02*
X5124943Y-12666175D01*
X5124943Y-12666175D02*
X5143991Y-12656651D01*
X5143991Y-12656651D02*
X5172562Y-12656651D01*
X5172562Y-12656651D02*
X5191610Y-12666175D01*
X5191610Y-12666175D02*
X5201134Y-12685222D01*
X5201134Y-12685222D02*
X5201134Y-12789984D01*
X5201134Y-12685222D02*
X5210657Y-12666175D01*
X5210657Y-12666175D02*
X5229705Y-12656651D01*
X5229705Y-12656651D02*
X5258276Y-12656651D01*
X5258276Y-12656651D02*
X5277324Y-12666175D01*
X5277324Y-12666175D02*
X5286848Y-12685222D01*
X5286848Y-12685222D02*
X5286848Y-12789984D01*
X5382086Y-12789984D02*
X5382086Y-12656651D01*
X5382086Y-12675698D02*
X5391610Y-12666175D01*
X5391610Y-12666175D02*
X5410657Y-12656651D01*
X5410657Y-12656651D02*
X5439229Y-12656651D01*
X5439229Y-12656651D02*
X5458277Y-12666175D01*
X5458277Y-12666175D02*
X5467800Y-12685222D01*
X5467800Y-12685222D02*
X5467800Y-12789984D01*
X5467800Y-12685222D02*
X5477324Y-12666175D01*
X5477324Y-12666175D02*
X5496372Y-12656651D01*
X5496372Y-12656651D02*
X5524943Y-12656651D01*
X5524943Y-12656651D02*
X5543991Y-12666175D01*
X5543991Y-12666175D02*
X5553515Y-12685222D01*
X5553515Y-12685222D02*
X5553515Y-12789984D01*
X5943991Y-12580460D02*
X5772562Y-12837603D01*
X6201134Y-12589984D02*
X6220181Y-12589984D01*
X6220181Y-12589984D02*
X6239229Y-12599508D01*
X6239229Y-12599508D02*
X6248753Y-12609032D01*
X6248753Y-12609032D02*
X6258277Y-12628079D01*
X6258277Y-12628079D02*
X6267800Y-12666175D01*
X6267800Y-12666175D02*
X6267800Y-12713794D01*
X6267800Y-12713794D02*
X6258277Y-12751889D01*
X6258277Y-12751889D02*
X6248753Y-12770936D01*
X6248753Y-12770936D02*
X6239229Y-12780460D01*
X6239229Y-12780460D02*
X6220181Y-12789984D01*
X6220181Y-12789984D02*
X6201134Y-12789984D01*
X6201134Y-12789984D02*
X6182086Y-12780460D01*
X6182086Y-12780460D02*
X6172562Y-12770936D01*
X6172562Y-12770936D02*
X6163038Y-12751889D01*
X6163038Y-12751889D02*
X6153515Y-12713794D01*
X6153515Y-12713794D02*
X6153515Y-12666175D01*
X6153515Y-12666175D02*
X6163038Y-12628079D01*
X6163038Y-12628079D02*
X6172562Y-12609032D01*
X6172562Y-12609032D02*
X6182086Y-12599508D01*
X6182086Y-12599508D02*
X6201134Y-12589984D01*
X6353515Y-12770936D02*
X6363038Y-12780460D01*
X6363038Y-12780460D02*
X6353515Y-12789984D01*
X6353515Y-12789984D02*
X6343991Y-12780460D01*
X6343991Y-12780460D02*
X6353515Y-12770936D01*
X6353515Y-12770936D02*
X6353515Y-12789984D01*
X6486848Y-12589984D02*
X6505896Y-12589984D01*
X6505896Y-12589984D02*
X6524943Y-12599508D01*
X6524943Y-12599508D02*
X6534467Y-12609032D01*
X6534467Y-12609032D02*
X6543991Y-12628079D01*
X6543991Y-12628079D02*
X6553515Y-12666175D01*
X6553515Y-12666175D02*
X6553515Y-12713794D01*
X6553515Y-12713794D02*
X6543991Y-12751889D01*
X6543991Y-12751889D02*
X6534467Y-12770936D01*
X6534467Y-12770936D02*
X6524943Y-12780460D01*
X6524943Y-12780460D02*
X6505896Y-12789984D01*
X6505896Y-12789984D02*
X6486848Y-12789984D01*
X6486848Y-12789984D02*
X6467800Y-12780460D01*
X6467800Y-12780460D02*
X6458277Y-12770936D01*
X6458277Y-12770936D02*
X6448753Y-12751889D01*
X6448753Y-12751889D02*
X6439229Y-12713794D01*
X6439229Y-12713794D02*
X6439229Y-12666175D01*
X6439229Y-12666175D02*
X6448753Y-12628079D01*
X6448753Y-12628079D02*
X6458277Y-12609032D01*
X6458277Y-12609032D02*
X6467800Y-12599508D01*
X6467800Y-12599508D02*
X6486848Y-12589984D01*
X6629705Y-12609032D02*
X6639229Y-12599508D01*
X6639229Y-12599508D02*
X6658277Y-12589984D01*
X6658277Y-12589984D02*
X6705896Y-12589984D01*
X6705896Y-12589984D02*
X6724943Y-12599508D01*
X6724943Y-12599508D02*
X6734467Y-12609032D01*
X6734467Y-12609032D02*
X6743991Y-12628079D01*
X6743991Y-12628079D02*
X6743991Y-12647127D01*
X6743991Y-12647127D02*
X6734467Y-12675698D01*
X6734467Y-12675698D02*
X6620181Y-12789984D01*
X6620181Y-12789984D02*
X6743991Y-12789984D01*
X6839229Y-12789984D02*
X6877324Y-12789984D01*
X6877324Y-12789984D02*
X6896372Y-12780460D01*
X6896372Y-12780460D02*
X6905896Y-12770936D01*
X6905896Y-12770936D02*
X6924943Y-12742365D01*
X6924943Y-12742365D02*
X6934467Y-12704270D01*
X6934467Y-12704270D02*
X6934467Y-12628079D01*
X6934467Y-12628079D02*
X6924943Y-12609032D01*
X6924943Y-12609032D02*
X6915419Y-12599508D01*
X6915419Y-12599508D02*
X6896372Y-12589984D01*
X6896372Y-12589984D02*
X6858277Y-12589984D01*
X6858277Y-12589984D02*
X6839229Y-12599508D01*
X6839229Y-12599508D02*
X6829705Y-12609032D01*
X6829705Y-12609032D02*
X6820181Y-12628079D01*
X6820181Y-12628079D02*
X6820181Y-12675698D01*
X6820181Y-12675698D02*
X6829705Y-12694746D01*
X6829705Y-12694746D02*
X6839229Y-12704270D01*
X6839229Y-12704270D02*
X6858277Y-12713794D01*
X6858277Y-12713794D02*
X6896372Y-12713794D01*
X6896372Y-12713794D02*
X6915419Y-12704270D01*
X6915419Y-12704270D02*
X6924943Y-12694746D01*
X6924943Y-12694746D02*
X6934467Y-12675698D01*
X7115419Y-12589984D02*
X7020181Y-12589984D01*
X7020181Y-12589984D02*
X7010658Y-12685222D01*
X7010658Y-12685222D02*
X7020181Y-12675698D01*
X7020181Y-12675698D02*
X7039229Y-12666175D01*
X7039229Y-12666175D02*
X7086848Y-12666175D01*
X7086848Y-12666175D02*
X7105896Y-12675698D01*
X7105896Y-12675698D02*
X7115419Y-12685222D01*
X7115419Y-12685222D02*
X7124943Y-12704270D01*
X7124943Y-12704270D02*
X7124943Y-12751889D01*
X7124943Y-12751889D02*
X7115419Y-12770936D01*
X7115419Y-12770936D02*
X7105896Y-12780460D01*
X7105896Y-12780460D02*
X7086848Y-12789984D01*
X7086848Y-12789984D02*
X7039229Y-12789984D01*
X7039229Y-12789984D02*
X7020181Y-12780460D01*
X7020181Y-12780460D02*
X7010658Y-12770936D01*
X7201134Y-12589984D02*
X7201134Y-12628079D01*
X7277324Y-12589984D02*
X7277324Y-12628079D01*
X7572562Y-12866175D02*
X7563039Y-12856651D01*
X7563039Y-12856651D02*
X7543991Y-12828079D01*
X7543991Y-12828079D02*
X7534467Y-12809032D01*
X7534467Y-12809032D02*
X7524943Y-12780460D01*
X7524943Y-12780460D02*
X7515420Y-12732841D01*
X7515420Y-12732841D02*
X7515420Y-12694746D01*
X7515420Y-12694746D02*
X7524943Y-12647127D01*
X7524943Y-12647127D02*
X7534467Y-12618556D01*
X7534467Y-12618556D02*
X7543991Y-12599508D01*
X7543991Y-12599508D02*
X7563039Y-12570936D01*
X7563039Y-12570936D02*
X7572562Y-12561413D01*
X7639229Y-12609032D02*
X7648753Y-12599508D01*
X7648753Y-12599508D02*
X7667800Y-12589984D01*
X7667800Y-12589984D02*
X7715420Y-12589984D01*
X7715420Y-12589984D02*
X7734467Y-12599508D01*
X7734467Y-12599508D02*
X7743991Y-12609032D01*
X7743991Y-12609032D02*
X7753515Y-12628079D01*
X7753515Y-12628079D02*
X7753515Y-12647127D01*
X7753515Y-12647127D02*
X7743991Y-12675698D01*
X7743991Y-12675698D02*
X7629705Y-12789984D01*
X7629705Y-12789984D02*
X7753515Y-12789984D01*
X7991610Y-12789984D02*
X7991610Y-12589984D01*
X8077324Y-12789984D02*
X8077324Y-12685222D01*
X8077324Y-12685222D02*
X8067801Y-12666175D01*
X8067801Y-12666175D02*
X8048753Y-12656651D01*
X8048753Y-12656651D02*
X8020181Y-12656651D01*
X8020181Y-12656651D02*
X8001134Y-12666175D01*
X8001134Y-12666175D02*
X7991610Y-12675698D01*
X8201134Y-12789984D02*
X8182086Y-12780460D01*
X8182086Y-12780460D02*
X8172562Y-12770936D01*
X8172562Y-12770936D02*
X8163039Y-12751889D01*
X8163039Y-12751889D02*
X8163039Y-12694746D01*
X8163039Y-12694746D02*
X8172562Y-12675698D01*
X8172562Y-12675698D02*
X8182086Y-12666175D01*
X8182086Y-12666175D02*
X8201134Y-12656651D01*
X8201134Y-12656651D02*
X8229705Y-12656651D01*
X8229705Y-12656651D02*
X8248753Y-12666175D01*
X8248753Y-12666175D02*
X8258277Y-12675698D01*
X8258277Y-12675698D02*
X8267801Y-12694746D01*
X8267801Y-12694746D02*
X8267801Y-12751889D01*
X8267801Y-12751889D02*
X8258277Y-12770936D01*
X8258277Y-12770936D02*
X8248753Y-12780460D01*
X8248753Y-12780460D02*
X8229705Y-12789984D01*
X8229705Y-12789984D02*
X8201134Y-12789984D01*
X8382086Y-12789984D02*
X8363039Y-12780460D01*
X8363039Y-12780460D02*
X8353515Y-12761413D01*
X8353515Y-12761413D02*
X8353515Y-12589984D01*
X8534467Y-12780460D02*
X8515420Y-12789984D01*
X8515420Y-12789984D02*
X8477324Y-12789984D01*
X8477324Y-12789984D02*
X8458277Y-12780460D01*
X8458277Y-12780460D02*
X8448753Y-12761413D01*
X8448753Y-12761413D02*
X8448753Y-12685222D01*
X8448753Y-12685222D02*
X8458277Y-12666175D01*
X8458277Y-12666175D02*
X8477324Y-12656651D01*
X8477324Y-12656651D02*
X8515420Y-12656651D01*
X8515420Y-12656651D02*
X8534467Y-12666175D01*
X8534467Y-12666175D02*
X8543991Y-12685222D01*
X8543991Y-12685222D02*
X8543991Y-12704270D01*
X8543991Y-12704270D02*
X8448753Y-12723317D01*
X8620182Y-12780460D02*
X8639229Y-12789984D01*
X8639229Y-12789984D02*
X8677324Y-12789984D01*
X8677324Y-12789984D02*
X8696372Y-12780460D01*
X8696372Y-12780460D02*
X8705896Y-12761413D01*
X8705896Y-12761413D02*
X8705896Y-12751889D01*
X8705896Y-12751889D02*
X8696372Y-12732841D01*
X8696372Y-12732841D02*
X8677324Y-12723317D01*
X8677324Y-12723317D02*
X8648753Y-12723317D01*
X8648753Y-12723317D02*
X8629705Y-12713794D01*
X8629705Y-12713794D02*
X8620182Y-12694746D01*
X8620182Y-12694746D02*
X8620182Y-12685222D01*
X8620182Y-12685222D02*
X8629705Y-12666175D01*
X8629705Y-12666175D02*
X8648753Y-12656651D01*
X8648753Y-12656651D02*
X8677324Y-12656651D01*
X8677324Y-12656651D02*
X8696372Y-12666175D01*
X8772563Y-12866175D02*
X8782086Y-12856651D01*
X8782086Y-12856651D02*
X8801134Y-12828079D01*
X8801134Y-12828079D02*
X8810658Y-12809032D01*
X8810658Y-12809032D02*
X8820182Y-12780460D01*
X8820182Y-12780460D02*
X8829705Y-12732841D01*
X8829705Y-12732841D02*
X8829705Y-12694746D01*
X8829705Y-12694746D02*
X8820182Y-12647127D01*
X8820182Y-12647127D02*
X8810658Y-12618556D01*
X8810658Y-12618556D02*
X8801134Y-12599508D01*
X8801134Y-12599508D02*
X8782086Y-12570936D01*
X8782086Y-12570936D02*
X8772563Y-12561413D01*
X9134467Y-12866175D02*
X9124944Y-12856651D01*
X9124944Y-12856651D02*
X9105896Y-12828079D01*
X9105896Y-12828079D02*
X9096372Y-12809032D01*
X9096372Y-12809032D02*
X9086848Y-12780460D01*
X9086848Y-12780460D02*
X9077325Y-12732841D01*
X9077325Y-12732841D02*
X9077325Y-12694746D01*
X9077325Y-12694746D02*
X9086848Y-12647127D01*
X9086848Y-12647127D02*
X9096372Y-12618556D01*
X9096372Y-12618556D02*
X9105896Y-12599508D01*
X9105896Y-12599508D02*
X9124944Y-12570936D01*
X9124944Y-12570936D02*
X9134467Y-12561413D01*
X9210658Y-12656651D02*
X9210658Y-12789984D01*
X9210658Y-12675698D02*
X9220182Y-12666175D01*
X9220182Y-12666175D02*
X9239229Y-12656651D01*
X9239229Y-12656651D02*
X9267801Y-12656651D01*
X9267801Y-12656651D02*
X9286848Y-12666175D01*
X9286848Y-12666175D02*
X9296372Y-12685222D01*
X9296372Y-12685222D02*
X9296372Y-12789984D01*
X9420182Y-12789984D02*
X9401134Y-12780460D01*
X9401134Y-12780460D02*
X9391610Y-12770936D01*
X9391610Y-12770936D02*
X9382086Y-12751889D01*
X9382086Y-12751889D02*
X9382086Y-12694746D01*
X9382086Y-12694746D02*
X9391610Y-12675698D01*
X9391610Y-12675698D02*
X9401134Y-12666175D01*
X9401134Y-12666175D02*
X9420182Y-12656651D01*
X9420182Y-12656651D02*
X9448753Y-12656651D01*
X9448753Y-12656651D02*
X9467801Y-12666175D01*
X9467801Y-12666175D02*
X9477325Y-12675698D01*
X9477325Y-12675698D02*
X9486848Y-12694746D01*
X9486848Y-12694746D02*
X9486848Y-12751889D01*
X9486848Y-12751889D02*
X9477325Y-12770936D01*
X9477325Y-12770936D02*
X9467801Y-12780460D01*
X9467801Y-12780460D02*
X9448753Y-12789984D01*
X9448753Y-12789984D02*
X9420182Y-12789984D01*
X9543991Y-12656651D02*
X9620182Y-12656651D01*
X9572563Y-12589984D02*
X9572563Y-12761413D01*
X9572563Y-12761413D02*
X9582086Y-12780460D01*
X9582086Y-12780460D02*
X9601134Y-12789984D01*
X9601134Y-12789984D02*
X9620182Y-12789984D01*
X9839229Y-12656651D02*
X9839229Y-12856651D01*
X9839229Y-12666175D02*
X9858277Y-12656651D01*
X9858277Y-12656651D02*
X9896372Y-12656651D01*
X9896372Y-12656651D02*
X9915420Y-12666175D01*
X9915420Y-12666175D02*
X9924944Y-12675698D01*
X9924944Y-12675698D02*
X9934467Y-12694746D01*
X9934467Y-12694746D02*
X9934467Y-12751889D01*
X9934467Y-12751889D02*
X9924944Y-12770936D01*
X9924944Y-12770936D02*
X9915420Y-12780460D01*
X9915420Y-12780460D02*
X9896372Y-12789984D01*
X9896372Y-12789984D02*
X9858277Y-12789984D01*
X9858277Y-12789984D02*
X9839229Y-12780460D01*
X10048753Y-12789984D02*
X10029706Y-12780460D01*
X10029706Y-12780460D02*
X10020182Y-12761413D01*
X10020182Y-12761413D02*
X10020182Y-12589984D01*
X10210658Y-12789984D02*
X10210658Y-12685222D01*
X10210658Y-12685222D02*
X10201134Y-12666175D01*
X10201134Y-12666175D02*
X10182087Y-12656651D01*
X10182087Y-12656651D02*
X10143991Y-12656651D01*
X10143991Y-12656651D02*
X10124944Y-12666175D01*
X10210658Y-12780460D02*
X10191610Y-12789984D01*
X10191610Y-12789984D02*
X10143991Y-12789984D01*
X10143991Y-12789984D02*
X10124944Y-12780460D01*
X10124944Y-12780460D02*
X10115420Y-12761413D01*
X10115420Y-12761413D02*
X10115420Y-12742365D01*
X10115420Y-12742365D02*
X10124944Y-12723317D01*
X10124944Y-12723317D02*
X10143991Y-12713794D01*
X10143991Y-12713794D02*
X10191610Y-12713794D01*
X10191610Y-12713794D02*
X10210658Y-12704270D01*
X10277325Y-12656651D02*
X10353515Y-12656651D01*
X10305896Y-12589984D02*
X10305896Y-12761413D01*
X10305896Y-12761413D02*
X10315420Y-12780460D01*
X10315420Y-12780460D02*
X10334467Y-12789984D01*
X10334467Y-12789984D02*
X10353515Y-12789984D01*
X10496372Y-12780460D02*
X10477325Y-12789984D01*
X10477325Y-12789984D02*
X10439229Y-12789984D01*
X10439229Y-12789984D02*
X10420182Y-12780460D01*
X10420182Y-12780460D02*
X10410658Y-12761413D01*
X10410658Y-12761413D02*
X10410658Y-12685222D01*
X10410658Y-12685222D02*
X10420182Y-12666175D01*
X10420182Y-12666175D02*
X10439229Y-12656651D01*
X10439229Y-12656651D02*
X10477325Y-12656651D01*
X10477325Y-12656651D02*
X10496372Y-12666175D01*
X10496372Y-12666175D02*
X10505896Y-12685222D01*
X10505896Y-12685222D02*
X10505896Y-12704270D01*
X10505896Y-12704270D02*
X10410658Y-12723317D01*
X10677325Y-12789984D02*
X10677325Y-12589984D01*
X10677325Y-12780460D02*
X10658277Y-12789984D01*
X10658277Y-12789984D02*
X10620182Y-12789984D01*
X10620182Y-12789984D02*
X10601134Y-12780460D01*
X10601134Y-12780460D02*
X10591610Y-12770936D01*
X10591610Y-12770936D02*
X10582087Y-12751889D01*
X10582087Y-12751889D02*
X10582087Y-12694746D01*
X10582087Y-12694746D02*
X10591610Y-12675698D01*
X10591610Y-12675698D02*
X10601134Y-12666175D01*
X10601134Y-12666175D02*
X10620182Y-12656651D01*
X10620182Y-12656651D02*
X10658277Y-12656651D01*
X10658277Y-12656651D02*
X10677325Y-12666175D01*
X10753515Y-12866175D02*
X10763039Y-12856651D01*
X10763039Y-12856651D02*
X10782087Y-12828079D01*
X10782087Y-12828079D02*
X10791610Y-12809032D01*
X10791610Y-12809032D02*
X10801134Y-12780460D01*
X10801134Y-12780460D02*
X10810658Y-12732841D01*
X10810658Y-12732841D02*
X10810658Y-12694746D01*
X10810658Y-12694746D02*
X10801134Y-12647127D01*
X10801134Y-12647127D02*
X10791610Y-12618556D01*
X10791610Y-12618556D02*
X10782087Y-12599508D01*
X10782087Y-12599508D02*
X10763039Y-12570936D01*
X10763039Y-12570936D02*
X10753515Y-12561413D01*
X3797500Y-12862500D02*
X3997500Y-13062500D01*
X3997500Y-12862500D02*
X3797500Y-13062500D01*
X3997500Y-12962500D02*
G75*
G02*
X3797500Y-12962500I-100000J0D01*
G01*
X3797500Y-12962500D02*
G75*
G02*
X3997500Y-12962500I100000J0D01*
G01*
X4239229Y-12853984D02*
X4363038Y-12853984D01*
X4363038Y-12853984D02*
X4296372Y-12930175D01*
X4296372Y-12930175D02*
X4324943Y-12930175D01*
X4324943Y-12930175D02*
X4343991Y-12939698D01*
X4343991Y-12939698D02*
X4353515Y-12949222D01*
X4353515Y-12949222D02*
X4363038Y-12968270D01*
X4363038Y-12968270D02*
X4363038Y-13015889D01*
X4363038Y-13015889D02*
X4353515Y-13034936D01*
X4353515Y-13034936D02*
X4343991Y-13044460D01*
X4343991Y-13044460D02*
X4324943Y-13053984D01*
X4324943Y-13053984D02*
X4267800Y-13053984D01*
X4267800Y-13053984D02*
X4248753Y-13044460D01*
X4248753Y-13044460D02*
X4239229Y-13034936D01*
X4448753Y-13034936D02*
X4458276Y-13044460D01*
X4458276Y-13044460D02*
X4448753Y-13053984D01*
X4448753Y-13053984D02*
X4439229Y-13044460D01*
X4439229Y-13044460D02*
X4448753Y-13034936D01*
X4448753Y-13034936D02*
X4448753Y-13053984D01*
X4534467Y-12873032D02*
X4543991Y-12863508D01*
X4543991Y-12863508D02*
X4563038Y-12853984D01*
X4563038Y-12853984D02*
X4610657Y-12853984D01*
X4610657Y-12853984D02*
X4629705Y-12863508D01*
X4629705Y-12863508D02*
X4639229Y-12873032D01*
X4639229Y-12873032D02*
X4648753Y-12892079D01*
X4648753Y-12892079D02*
X4648753Y-12911127D01*
X4648753Y-12911127D02*
X4639229Y-12939698D01*
X4639229Y-12939698D02*
X4524943Y-13053984D01*
X4524943Y-13053984D02*
X4648753Y-13053984D01*
X4772562Y-12853984D02*
X4791610Y-12853984D01*
X4791610Y-12853984D02*
X4810657Y-12863508D01*
X4810657Y-12863508D02*
X4820181Y-12873032D01*
X4820181Y-12873032D02*
X4829705Y-12892079D01*
X4829705Y-12892079D02*
X4839229Y-12930175D01*
X4839229Y-12930175D02*
X4839229Y-12977794D01*
X4839229Y-12977794D02*
X4829705Y-13015889D01*
X4829705Y-13015889D02*
X4820181Y-13034936D01*
X4820181Y-13034936D02*
X4810657Y-13044460D01*
X4810657Y-13044460D02*
X4791610Y-13053984D01*
X4791610Y-13053984D02*
X4772562Y-13053984D01*
X4772562Y-13053984D02*
X4753515Y-13044460D01*
X4753515Y-13044460D02*
X4743991Y-13034936D01*
X4743991Y-13034936D02*
X4734467Y-13015889D01*
X4734467Y-13015889D02*
X4724943Y-12977794D01*
X4724943Y-12977794D02*
X4724943Y-12930175D01*
X4724943Y-12930175D02*
X4734467Y-12892079D01*
X4734467Y-12892079D02*
X4743991Y-12873032D01*
X4743991Y-12873032D02*
X4753515Y-12863508D01*
X4753515Y-12863508D02*
X4772562Y-12853984D01*
X4963038Y-12853984D02*
X4982086Y-12853984D01*
X4982086Y-12853984D02*
X5001134Y-12863508D01*
X5001134Y-12863508D02*
X5010657Y-12873032D01*
X5010657Y-12873032D02*
X5020181Y-12892079D01*
X5020181Y-12892079D02*
X5029705Y-12930175D01*
X5029705Y-12930175D02*
X5029705Y-12977794D01*
X5029705Y-12977794D02*
X5020181Y-13015889D01*
X5020181Y-13015889D02*
X5010657Y-13034936D01*
X5010657Y-13034936D02*
X5001134Y-13044460D01*
X5001134Y-13044460D02*
X4982086Y-13053984D01*
X4982086Y-13053984D02*
X4963038Y-13053984D01*
X4963038Y-13053984D02*
X4943991Y-13044460D01*
X4943991Y-13044460D02*
X4934467Y-13034936D01*
X4934467Y-13034936D02*
X4924943Y-13015889D01*
X4924943Y-13015889D02*
X4915419Y-12977794D01*
X4915419Y-12977794D02*
X4915419Y-12930175D01*
X4915419Y-12930175D02*
X4924943Y-12892079D01*
X4924943Y-12892079D02*
X4934467Y-12873032D01*
X4934467Y-12873032D02*
X4943991Y-12863508D01*
X4943991Y-12863508D02*
X4963038Y-12853984D01*
X5115419Y-13053984D02*
X5115419Y-12920651D01*
X5115419Y-12939698D02*
X5124943Y-12930175D01*
X5124943Y-12930175D02*
X5143991Y-12920651D01*
X5143991Y-12920651D02*
X5172562Y-12920651D01*
X5172562Y-12920651D02*
X5191610Y-12930175D01*
X5191610Y-12930175D02*
X5201134Y-12949222D01*
X5201134Y-12949222D02*
X5201134Y-13053984D01*
X5201134Y-12949222D02*
X5210657Y-12930175D01*
X5210657Y-12930175D02*
X5229705Y-12920651D01*
X5229705Y-12920651D02*
X5258276Y-12920651D01*
X5258276Y-12920651D02*
X5277324Y-12930175D01*
X5277324Y-12930175D02*
X5286848Y-12949222D01*
X5286848Y-12949222D02*
X5286848Y-13053984D01*
X5382086Y-13053984D02*
X5382086Y-12920651D01*
X5382086Y-12939698D02*
X5391610Y-12930175D01*
X5391610Y-12930175D02*
X5410657Y-12920651D01*
X5410657Y-12920651D02*
X5439229Y-12920651D01*
X5439229Y-12920651D02*
X5458277Y-12930175D01*
X5458277Y-12930175D02*
X5467800Y-12949222D01*
X5467800Y-12949222D02*
X5467800Y-13053984D01*
X5467800Y-12949222D02*
X5477324Y-12930175D01*
X5477324Y-12930175D02*
X5496372Y-12920651D01*
X5496372Y-12920651D02*
X5524943Y-12920651D01*
X5524943Y-12920651D02*
X5543991Y-12930175D01*
X5543991Y-12930175D02*
X5553515Y-12949222D01*
X5553515Y-12949222D02*
X5553515Y-13053984D01*
X5943991Y-12844460D02*
X5772562Y-13101603D01*
X6201134Y-12853984D02*
X6220181Y-12853984D01*
X6220181Y-12853984D02*
X6239229Y-12863508D01*
X6239229Y-12863508D02*
X6248753Y-12873032D01*
X6248753Y-12873032D02*
X6258277Y-12892079D01*
X6258277Y-12892079D02*
X6267800Y-12930175D01*
X6267800Y-12930175D02*
X6267800Y-12977794D01*
X6267800Y-12977794D02*
X6258277Y-13015889D01*
X6258277Y-13015889D02*
X6248753Y-13034936D01*
X6248753Y-13034936D02*
X6239229Y-13044460D01*
X6239229Y-13044460D02*
X6220181Y-13053984D01*
X6220181Y-13053984D02*
X6201134Y-13053984D01*
X6201134Y-13053984D02*
X6182086Y-13044460D01*
X6182086Y-13044460D02*
X6172562Y-13034936D01*
X6172562Y-13034936D02*
X6163038Y-13015889D01*
X6163038Y-13015889D02*
X6153515Y-12977794D01*
X6153515Y-12977794D02*
X6153515Y-12930175D01*
X6153515Y-12930175D02*
X6163038Y-12892079D01*
X6163038Y-12892079D02*
X6172562Y-12873032D01*
X6172562Y-12873032D02*
X6182086Y-12863508D01*
X6182086Y-12863508D02*
X6201134Y-12853984D01*
X6353515Y-13034936D02*
X6363038Y-13044460D01*
X6363038Y-13044460D02*
X6353515Y-13053984D01*
X6353515Y-13053984D02*
X6343991Y-13044460D01*
X6343991Y-13044460D02*
X6353515Y-13034936D01*
X6353515Y-13034936D02*
X6353515Y-13053984D01*
X6553515Y-13053984D02*
X6439229Y-13053984D01*
X6496372Y-13053984D02*
X6496372Y-12853984D01*
X6496372Y-12853984D02*
X6477324Y-12882556D01*
X6477324Y-12882556D02*
X6458277Y-12901603D01*
X6458277Y-12901603D02*
X6439229Y-12911127D01*
X6629705Y-12873032D02*
X6639229Y-12863508D01*
X6639229Y-12863508D02*
X6658277Y-12853984D01*
X6658277Y-12853984D02*
X6705896Y-12853984D01*
X6705896Y-12853984D02*
X6724943Y-12863508D01*
X6724943Y-12863508D02*
X6734467Y-12873032D01*
X6734467Y-12873032D02*
X6743991Y-12892079D01*
X6743991Y-12892079D02*
X6743991Y-12911127D01*
X6743991Y-12911127D02*
X6734467Y-12939698D01*
X6734467Y-12939698D02*
X6620181Y-13053984D01*
X6620181Y-13053984D02*
X6743991Y-13053984D01*
X6915419Y-12853984D02*
X6877324Y-12853984D01*
X6877324Y-12853984D02*
X6858277Y-12863508D01*
X6858277Y-12863508D02*
X6848753Y-12873032D01*
X6848753Y-12873032D02*
X6829705Y-12901603D01*
X6829705Y-12901603D02*
X6820181Y-12939698D01*
X6820181Y-12939698D02*
X6820181Y-13015889D01*
X6820181Y-13015889D02*
X6829705Y-13034936D01*
X6829705Y-13034936D02*
X6839229Y-13044460D01*
X6839229Y-13044460D02*
X6858277Y-13053984D01*
X6858277Y-13053984D02*
X6896372Y-13053984D01*
X6896372Y-13053984D02*
X6915419Y-13044460D01*
X6915419Y-13044460D02*
X6924943Y-13034936D01*
X6924943Y-13034936D02*
X6934467Y-13015889D01*
X6934467Y-13015889D02*
X6934467Y-12968270D01*
X6934467Y-12968270D02*
X6924943Y-12949222D01*
X6924943Y-12949222D02*
X6915419Y-12939698D01*
X6915419Y-12939698D02*
X6896372Y-12930175D01*
X6896372Y-12930175D02*
X6858277Y-12930175D01*
X6858277Y-12930175D02*
X6839229Y-12939698D01*
X6839229Y-12939698D02*
X6829705Y-12949222D01*
X6829705Y-12949222D02*
X6820181Y-12968270D01*
X7058277Y-12853984D02*
X7077324Y-12853984D01*
X7077324Y-12853984D02*
X7096372Y-12863508D01*
X7096372Y-12863508D02*
X7105896Y-12873032D01*
X7105896Y-12873032D02*
X7115419Y-12892079D01*
X7115419Y-12892079D02*
X7124943Y-12930175D01*
X7124943Y-12930175D02*
X7124943Y-12977794D01*
X7124943Y-12977794D02*
X7115419Y-13015889D01*
X7115419Y-13015889D02*
X7105896Y-13034936D01*
X7105896Y-13034936D02*
X7096372Y-13044460D01*
X7096372Y-13044460D02*
X7077324Y-13053984D01*
X7077324Y-13053984D02*
X7058277Y-13053984D01*
X7058277Y-13053984D02*
X7039229Y-13044460D01*
X7039229Y-13044460D02*
X7029705Y-13034936D01*
X7029705Y-13034936D02*
X7020181Y-13015889D01*
X7020181Y-13015889D02*
X7010658Y-12977794D01*
X7010658Y-12977794D02*
X7010658Y-12930175D01*
X7010658Y-12930175D02*
X7020181Y-12892079D01*
X7020181Y-12892079D02*
X7029705Y-12873032D01*
X7029705Y-12873032D02*
X7039229Y-12863508D01*
X7039229Y-12863508D02*
X7058277Y-12853984D01*
X7201134Y-12853984D02*
X7201134Y-12892079D01*
X7277324Y-12853984D02*
X7277324Y-12892079D01*
X7572562Y-13130175D02*
X7563039Y-13120651D01*
X7563039Y-13120651D02*
X7543991Y-13092079D01*
X7543991Y-13092079D02*
X7534467Y-13073032D01*
X7534467Y-13073032D02*
X7524943Y-13044460D01*
X7524943Y-13044460D02*
X7515420Y-12996841D01*
X7515420Y-12996841D02*
X7515420Y-12958746D01*
X7515420Y-12958746D02*
X7524943Y-12911127D01*
X7524943Y-12911127D02*
X7534467Y-12882556D01*
X7534467Y-12882556D02*
X7543991Y-12863508D01*
X7543991Y-12863508D02*
X7563039Y-12834936D01*
X7563039Y-12834936D02*
X7572562Y-12825413D01*
X7734467Y-12920651D02*
X7734467Y-13053984D01*
X7686848Y-12844460D02*
X7639229Y-12987317D01*
X7639229Y-12987317D02*
X7763039Y-12987317D01*
X7991610Y-13053984D02*
X7991610Y-12853984D01*
X8077324Y-13053984D02*
X8077324Y-12949222D01*
X8077324Y-12949222D02*
X8067801Y-12930175D01*
X8067801Y-12930175D02*
X8048753Y-12920651D01*
X8048753Y-12920651D02*
X8020181Y-12920651D01*
X8020181Y-12920651D02*
X8001134Y-12930175D01*
X8001134Y-12930175D02*
X7991610Y-12939698D01*
X8201134Y-13053984D02*
X8182086Y-13044460D01*
X8182086Y-13044460D02*
X8172562Y-13034936D01*
X8172562Y-13034936D02*
X8163039Y-13015889D01*
X8163039Y-13015889D02*
X8163039Y-12958746D01*
X8163039Y-12958746D02*
X8172562Y-12939698D01*
X8172562Y-12939698D02*
X8182086Y-12930175D01*
X8182086Y-12930175D02*
X8201134Y-12920651D01*
X8201134Y-12920651D02*
X8229705Y-12920651D01*
X8229705Y-12920651D02*
X8248753Y-12930175D01*
X8248753Y-12930175D02*
X8258277Y-12939698D01*
X8258277Y-12939698D02*
X8267801Y-12958746D01*
X8267801Y-12958746D02*
X8267801Y-13015889D01*
X8267801Y-13015889D02*
X8258277Y-13034936D01*
X8258277Y-13034936D02*
X8248753Y-13044460D01*
X8248753Y-13044460D02*
X8229705Y-13053984D01*
X8229705Y-13053984D02*
X8201134Y-13053984D01*
X8382086Y-13053984D02*
X8363039Y-13044460D01*
X8363039Y-13044460D02*
X8353515Y-13025413D01*
X8353515Y-13025413D02*
X8353515Y-12853984D01*
X8534467Y-13044460D02*
X8515420Y-13053984D01*
X8515420Y-13053984D02*
X8477324Y-13053984D01*
X8477324Y-13053984D02*
X8458277Y-13044460D01*
X8458277Y-13044460D02*
X8448753Y-13025413D01*
X8448753Y-13025413D02*
X8448753Y-12949222D01*
X8448753Y-12949222D02*
X8458277Y-12930175D01*
X8458277Y-12930175D02*
X8477324Y-12920651D01*
X8477324Y-12920651D02*
X8515420Y-12920651D01*
X8515420Y-12920651D02*
X8534467Y-12930175D01*
X8534467Y-12930175D02*
X8543991Y-12949222D01*
X8543991Y-12949222D02*
X8543991Y-12968270D01*
X8543991Y-12968270D02*
X8448753Y-12987317D01*
X8620182Y-13044460D02*
X8639229Y-13053984D01*
X8639229Y-13053984D02*
X8677324Y-13053984D01*
X8677324Y-13053984D02*
X8696372Y-13044460D01*
X8696372Y-13044460D02*
X8705896Y-13025413D01*
X8705896Y-13025413D02*
X8705896Y-13015889D01*
X8705896Y-13015889D02*
X8696372Y-12996841D01*
X8696372Y-12996841D02*
X8677324Y-12987317D01*
X8677324Y-12987317D02*
X8648753Y-12987317D01*
X8648753Y-12987317D02*
X8629705Y-12977794D01*
X8629705Y-12977794D02*
X8620182Y-12958746D01*
X8620182Y-12958746D02*
X8620182Y-12949222D01*
X8620182Y-12949222D02*
X8629705Y-12930175D01*
X8629705Y-12930175D02*
X8648753Y-12920651D01*
X8648753Y-12920651D02*
X8677324Y-12920651D01*
X8677324Y-12920651D02*
X8696372Y-12930175D01*
X8772563Y-13130175D02*
X8782086Y-13120651D01*
X8782086Y-13120651D02*
X8801134Y-13092079D01*
X8801134Y-13092079D02*
X8810658Y-13073032D01*
X8810658Y-13073032D02*
X8820182Y-13044460D01*
X8820182Y-13044460D02*
X8829705Y-12996841D01*
X8829705Y-12996841D02*
X8829705Y-12958746D01*
X8829705Y-12958746D02*
X8820182Y-12911127D01*
X8820182Y-12911127D02*
X8810658Y-12882556D01*
X8810658Y-12882556D02*
X8801134Y-12863508D01*
X8801134Y-12863508D02*
X8782086Y-12834936D01*
X8782086Y-12834936D02*
X8772563Y-12825413D01*
X9134467Y-13130175D02*
X9124944Y-13120651D01*
X9124944Y-13120651D02*
X9105896Y-13092079D01*
X9105896Y-13092079D02*
X9096372Y-13073032D01*
X9096372Y-13073032D02*
X9086848Y-13044460D01*
X9086848Y-13044460D02*
X9077325Y-12996841D01*
X9077325Y-12996841D02*
X9077325Y-12958746D01*
X9077325Y-12958746D02*
X9086848Y-12911127D01*
X9086848Y-12911127D02*
X9096372Y-12882556D01*
X9096372Y-12882556D02*
X9105896Y-12863508D01*
X9105896Y-12863508D02*
X9124944Y-12834936D01*
X9124944Y-12834936D02*
X9134467Y-12825413D01*
X9210658Y-12920651D02*
X9210658Y-13053984D01*
X9210658Y-12939698D02*
X9220182Y-12930175D01*
X9220182Y-12930175D02*
X9239229Y-12920651D01*
X9239229Y-12920651D02*
X9267801Y-12920651D01*
X9267801Y-12920651D02*
X9286848Y-12930175D01*
X9286848Y-12930175D02*
X9296372Y-12949222D01*
X9296372Y-12949222D02*
X9296372Y-13053984D01*
X9420182Y-13053984D02*
X9401134Y-13044460D01*
X9401134Y-13044460D02*
X9391610Y-13034936D01*
X9391610Y-13034936D02*
X9382086Y-13015889D01*
X9382086Y-13015889D02*
X9382086Y-12958746D01*
X9382086Y-12958746D02*
X9391610Y-12939698D01*
X9391610Y-12939698D02*
X9401134Y-12930175D01*
X9401134Y-12930175D02*
X9420182Y-12920651D01*
X9420182Y-12920651D02*
X9448753Y-12920651D01*
X9448753Y-12920651D02*
X9467801Y-12930175D01*
X9467801Y-12930175D02*
X9477325Y-12939698D01*
X9477325Y-12939698D02*
X9486848Y-12958746D01*
X9486848Y-12958746D02*
X9486848Y-13015889D01*
X9486848Y-13015889D02*
X9477325Y-13034936D01*
X9477325Y-13034936D02*
X9467801Y-13044460D01*
X9467801Y-13044460D02*
X9448753Y-13053984D01*
X9448753Y-13053984D02*
X9420182Y-13053984D01*
X9543991Y-12920651D02*
X9620182Y-12920651D01*
X9572563Y-12853984D02*
X9572563Y-13025413D01*
X9572563Y-13025413D02*
X9582086Y-13044460D01*
X9582086Y-13044460D02*
X9601134Y-13053984D01*
X9601134Y-13053984D02*
X9620182Y-13053984D01*
X9839229Y-12920651D02*
X9839229Y-13120651D01*
X9839229Y-12930175D02*
X9858277Y-12920651D01*
X9858277Y-12920651D02*
X9896372Y-12920651D01*
X9896372Y-12920651D02*
X9915420Y-12930175D01*
X9915420Y-12930175D02*
X9924944Y-12939698D01*
X9924944Y-12939698D02*
X9934467Y-12958746D01*
X9934467Y-12958746D02*
X9934467Y-13015889D01*
X9934467Y-13015889D02*
X9924944Y-13034936D01*
X9924944Y-13034936D02*
X9915420Y-13044460D01*
X9915420Y-13044460D02*
X9896372Y-13053984D01*
X9896372Y-13053984D02*
X9858277Y-13053984D01*
X9858277Y-13053984D02*
X9839229Y-13044460D01*
X10048753Y-13053984D02*
X10029706Y-13044460D01*
X10029706Y-13044460D02*
X10020182Y-13025413D01*
X10020182Y-13025413D02*
X10020182Y-12853984D01*
X10210658Y-13053984D02*
X10210658Y-12949222D01*
X10210658Y-12949222D02*
X10201134Y-12930175D01*
X10201134Y-12930175D02*
X10182087Y-12920651D01*
X10182087Y-12920651D02*
X10143991Y-12920651D01*
X10143991Y-12920651D02*
X10124944Y-12930175D01*
X10210658Y-13044460D02*
X10191610Y-13053984D01*
X10191610Y-13053984D02*
X10143991Y-13053984D01*
X10143991Y-13053984D02*
X10124944Y-13044460D01*
X10124944Y-13044460D02*
X10115420Y-13025413D01*
X10115420Y-13025413D02*
X10115420Y-13006365D01*
X10115420Y-13006365D02*
X10124944Y-12987317D01*
X10124944Y-12987317D02*
X10143991Y-12977794D01*
X10143991Y-12977794D02*
X10191610Y-12977794D01*
X10191610Y-12977794D02*
X10210658Y-12968270D01*
X10277325Y-12920651D02*
X10353515Y-12920651D01*
X10305896Y-12853984D02*
X10305896Y-13025413D01*
X10305896Y-13025413D02*
X10315420Y-13044460D01*
X10315420Y-13044460D02*
X10334467Y-13053984D01*
X10334467Y-13053984D02*
X10353515Y-13053984D01*
X10496372Y-13044460D02*
X10477325Y-13053984D01*
X10477325Y-13053984D02*
X10439229Y-13053984D01*
X10439229Y-13053984D02*
X10420182Y-13044460D01*
X10420182Y-13044460D02*
X10410658Y-13025413D01*
X10410658Y-13025413D02*
X10410658Y-12949222D01*
X10410658Y-12949222D02*
X10420182Y-12930175D01*
X10420182Y-12930175D02*
X10439229Y-12920651D01*
X10439229Y-12920651D02*
X10477325Y-12920651D01*
X10477325Y-12920651D02*
X10496372Y-12930175D01*
X10496372Y-12930175D02*
X10505896Y-12949222D01*
X10505896Y-12949222D02*
X10505896Y-12968270D01*
X10505896Y-12968270D02*
X10410658Y-12987317D01*
X10677325Y-13053984D02*
X10677325Y-12853984D01*
X10677325Y-13044460D02*
X10658277Y-13053984D01*
X10658277Y-13053984D02*
X10620182Y-13053984D01*
X10620182Y-13053984D02*
X10601134Y-13044460D01*
X10601134Y-13044460D02*
X10591610Y-13034936D01*
X10591610Y-13034936D02*
X10582087Y-13015889D01*
X10582087Y-13015889D02*
X10582087Y-12958746D01*
X10582087Y-12958746D02*
X10591610Y-12939698D01*
X10591610Y-12939698D02*
X10601134Y-12930175D01*
X10601134Y-12930175D02*
X10620182Y-12920651D01*
X10620182Y-12920651D02*
X10658277Y-12920651D01*
X10658277Y-12920651D02*
X10677325Y-12930175D01*
X10753515Y-13130175D02*
X10763039Y-13120651D01*
X10763039Y-13120651D02*
X10782087Y-13092079D01*
X10782087Y-13092079D02*
X10791610Y-13073032D01*
X10791610Y-13073032D02*
X10801134Y-13044460D01*
X10801134Y-13044460D02*
X10810658Y-12996841D01*
X10810658Y-12996841D02*
X10810658Y-12958746D01*
X10810658Y-12958746D02*
X10801134Y-12911127D01*
X10801134Y-12911127D02*
X10791610Y-12882556D01*
X10791610Y-12882556D02*
X10782087Y-12863508D01*
X10782087Y-12863508D02*
X10763039Y-12834936D01*
X10763039Y-12834936D02*
X10753515Y-12825413D01*
M02*
