%TF.GenerationSoftware,KiCad,Pcbnew,10.0.4*%
%TF.CreationDate,2026-08-18T13:41:44-07:00*%
%TF.ProjectId,FPGA_Board,46504741-5f42-46f6-9172-642e6b696361,rev?*%
%TF.SameCoordinates,Original*%
%TF.FileFunction,Soldermask,Bot*%
%TF.FilePolarity,Negative*%
%FSLAX46Y46*%
G04 Gerber Fmt 4.6, Leading zero omitted, Abs format (unit mm)*
G04 Created by KiCad (PCBNEW 10.0.4) date 2026-08-18 13:41:44*
%MOMM*%
%LPD*%
G01*
G04 APERTURE LIST*
%ADD10C,3.200000*%
%ADD11C,0.750000*%
%ADD12R,1.700000X1.700000*%
%ADD13C,1.700000*%
%ADD14C,0.650000*%
%ADD15O,1.000000X2.100000*%
%ADD16O,1.000000X1.600000*%
G04 APERTURE END LIST*
D10*
%TO.C,H4*%
X45000000Y-105000000D03*
%TD*%
D11*
%TO.C,SW1*%
X65000000Y-40625000D03*
X65000000Y-43375000D03*
%TD*%
D10*
%TO.C,H2*%
X85000000Y-45000000D03*
%TD*%
%TO.C,H3*%
X85000000Y-105000000D03*
%TD*%
D12*
%TO.C,J4*%
X82725000Y-51030000D03*
D13*
X85265000Y-51030000D03*
X82725000Y-53570000D03*
X85265000Y-53570000D03*
X82725000Y-56109999D03*
X85265000Y-56110000D03*
X82725000Y-58650000D03*
X85265000Y-58650000D03*
X82725000Y-61190000D03*
X85265000Y-61190000D03*
X82725000Y-63730000D03*
X85265000Y-63730000D03*
X82725000Y-66270000D03*
X85265000Y-66270000D03*
X82725000Y-68810001D03*
X85265000Y-68810000D03*
X82725000Y-71350000D03*
X85265000Y-71350000D03*
X82725000Y-73890000D03*
X85265000Y-73890000D03*
X82725000Y-76430000D03*
X85265000Y-76430000D03*
X82725000Y-78969999D03*
X85265000Y-78970000D03*
%TD*%
D10*
%TO.C,H1*%
X45000000Y-45000000D03*
%TD*%
D12*
%TO.C,J3*%
X43725000Y-51030000D03*
D13*
X46265000Y-51030000D03*
X43725000Y-53570000D03*
X46265000Y-53570000D03*
X43725000Y-56109999D03*
X46265000Y-56110000D03*
X43725000Y-58650000D03*
X46265000Y-58650000D03*
X43725000Y-61190000D03*
X46265000Y-61190000D03*
X43725000Y-63730000D03*
X46265000Y-63730000D03*
X43725000Y-66270000D03*
X46265000Y-66270000D03*
X43725000Y-68810001D03*
X46265000Y-68810000D03*
X43725000Y-71350000D03*
X46265000Y-71350000D03*
X43725000Y-73890000D03*
X46265000Y-73890000D03*
X43725000Y-76430000D03*
X46265000Y-76430000D03*
X43725000Y-78969999D03*
X46265000Y-78970000D03*
%TD*%
D14*
%TO.C,J1*%
X62110000Y-103460000D03*
X67890000Y-103460000D03*
D15*
X60680000Y-102930000D03*
D16*
X60680000Y-107110000D03*
D15*
X69320000Y-102930000D03*
D16*
X69320000Y-107110000D03*
%TD*%
M02*
