M48
; DRILL file KiCad 10.0.4 date 2026-08-18T13:41:54
; FORMAT={-:-/ absolute / metric / decimal}
; #@! TF.CreationDate,2026-08-18T13:41:54-07:00
; #@! TF.GenerationSoftware,Kicad,Pcbnew,10.0.4
; #@! TF.FileFunction,MixedPlating,1,4
FMAT,2
METRIC
; #@! TA.AperFunction,Plated,PTH,ViaDrill
T1C0.300
; #@! TA.AperFunction,Plated,PTH,ComponentDrill
T2C0.600
; #@! TA.AperFunction,Plated,PTH,ComponentDrill
T3C1.000
; #@! TA.AperFunction,NonPlated,NPTH,ComponentDrill
T4C0.650
; #@! TA.AperFunction,NonPlated,NPTH,ComponentDrill
T5C0.750
; #@! TA.AperFunction,NonPlated,NPTH,ComponentDrill
T6C3.200
%
G90
G05
T1
X49.52Y-75.0
X50.832Y-63.217
X52.639Y-60.389
X53.6Y-91.52
X53.635Y-84.525
X53.85Y-63.0
X54.064Y-59.137
X54.5Y-42.02
X54.5Y-42.98
X55.014Y-60.088
X55.64Y-77.15
X56.45Y-57.6
X56.7Y-72.3
X56.75Y-43.05
X56.81Y-61.884
X57.02Y-64.5
X57.02Y-66.75
X57.43Y-69.483
X57.98Y-64.5
X57.98Y-66.75
X58.25Y-41.95
X58.25Y-43.05
X59.0Y-75.51
X59.0Y-88.52
X59.0Y-89.48
X59.19Y-54.116
X59.212Y-93.0
X59.261Y-70.289
X59.431Y-63.131
X60.461Y-51.297
X60.668Y-70.296
X60.911Y-72.439
X60.974Y-55.924
X61.589Y-71.761
X61.75Y-102.015
X61.884Y-56.81
X62.2Y-94.9
X62.425Y-41.15
X62.55Y-102.015
X63.0Y-93.48
X63.15Y-83.15
X64.0Y-87.475
X64.975Y-87.5
X65.0Y-96.862
X65.0Y-99.137
X65.07Y-66.656
X65.286Y-59.239
X66.15Y-59.9
X66.4Y-84.175
X66.78Y-92.0
X67.45Y-102.015
X67.525Y-85.75
X67.575Y-41.15
X68.2Y-54.275
X68.245Y-61.975
X68.25Y-102.015
X68.68Y-91.98
X69.325Y-56.9
X69.589Y-60.711
X69.68Y-63.46
X70.0Y-45.01
X70.311Y-59.989
X70.359Y-62.781
X70.98Y-83.5
X71.0Y-82.52
X71.094Y-66.061
X71.52Y-100.0
X71.773Y-66.739
X72.48Y-100.0
X72.48Y-104.0
X75.0Y-80.0
X76.0Y-80.0
X77.0Y-80.0
X77.4Y-83.6
X78.0Y-80.0
X78.862Y-90.0
X78.862Y-94.0
X78.862Y-98.0
X78.91Y-83.9
X81.138Y-89.05
X81.138Y-93.05
X81.138Y-97.05
T3
X43.725Y-51.03
X43.725Y-53.57
X43.725Y-56.11
X43.725Y-58.65
X43.725Y-61.19
X43.725Y-63.73
X43.725Y-66.27
X43.725Y-68.81
X43.725Y-71.35
X43.725Y-73.89
X43.725Y-76.43
X43.725Y-78.97
X46.265Y-51.03
X46.265Y-53.57
X46.265Y-56.11
X46.265Y-58.65
X46.265Y-61.19
X46.265Y-63.73
X46.265Y-66.27
X46.265Y-68.81
X46.265Y-71.35
X46.265Y-73.89
X46.265Y-76.43
X46.265Y-78.97
X82.725Y-51.03
X82.725Y-53.57
X82.725Y-56.11
X82.725Y-58.65
X82.725Y-61.19
X82.725Y-63.73
X82.725Y-66.27
X82.725Y-68.81
X82.725Y-71.35
X82.725Y-73.89
X82.725Y-76.43
X82.725Y-78.97
X85.265Y-51.03
X85.265Y-53.57
X85.265Y-56.11
X85.265Y-58.65
X85.265Y-61.19
X85.265Y-63.73
X85.265Y-66.27
X85.265Y-68.81
X85.265Y-71.35
X85.265Y-73.89
X85.265Y-76.43
X85.265Y-78.97
T4
X62.11Y-103.46
X67.89Y-103.46
T5
X65.0Y-40.625
X65.0Y-43.375
T6
X45.0Y-45.0
X45.0Y-105.0
X85.0Y-45.0
X85.0Y-105.0
T2
X60.68Y-102.38G85X60.68Y-103.48
G05
X60.68Y-106.81G85X60.68Y-107.41
G05
X69.32Y-102.38G85X69.32Y-103.48
G05
X69.32Y-106.81G85X69.32Y-107.41
G05
M30
